<svg id="Layer_1" data-name="Layer 1" xmlns="http://www.w3.org/2000/svg" viewBox="0 0 207.51 207.51"><defs><style>.cls-1{fill:#2a2a26;}</style></defs><title>Plot_Icons_Artistman</title><polygon class="cls-1" points="75.65 48.57 72.8 45.71 69.5 49.01 66.2 45.71 63.35 48.57 66.64 51.86 63.35 55.16 66.2 58.01 69.5 54.72 72.8 58.01 75.65 55.16 72.36 51.86 75.65 48.57"/><polygon class="cls-1" points="98.64 48.57 95.79 45.71 92.49 49.01 89.2 45.71 86.34 48.57 89.64 51.86 86.34 55.16 89.2 58.01 92.49 54.72 95.79 58.01 98.64 55.16 95.35 51.86 98.64 48.57"/><polygon class="cls-1" points="121.63 48.57 118.78 45.71 115.48 49.01 112.19 45.71 109.33 48.57 112.63 51.86 109.33 55.16 112.19 58.01 115.48 54.72 118.78 58.01 121.63 55.16 118.34 51.86 121.63 48.57"/><polygon class="cls-1" points="144.62 48.57 141.77 45.71 138.47 49.01 135.18 45.71 132.32 48.57 135.62 51.86 132.32 55.16 135.18 58.01 138.47 54.72 141.77 58.01 144.62 55.16 141.33 51.86 144.62 48.57"/><polygon class="cls-1" points="63.22 141.95 60.36 139.09 57.07 142.38 53.77 139.09 50.91 141.95 54.21 145.24 50.91 148.54 53.77 151.39 57.07 148.1 60.36 151.39 63.22 148.54 59.92 145.24 63.22 141.95"/><polygon class="cls-1" points="81.98 141.95 79.13 139.09 75.83 142.38 72.54 139.09 69.68 141.95 72.98 145.24 69.68 148.54 72.54 151.39 75.83 148.1 79.13 151.39 81.98 148.54 78.69 145.24 81.98 141.95"/><polygon class="cls-1" points="100.75 141.95 97.9 139.09 94.6 142.38 91.31 139.09 88.45 141.95 91.75 145.24 88.45 148.54 91.31 151.39 94.6 148.1 97.9 151.39 100.75 148.54 97.46 145.24 100.75 141.95"/><polygon class="cls-1" points="119.52 141.95 116.67 139.09 113.37 142.38 110.08 139.09 107.22 141.95 110.51 145.24 107.22 148.54 110.08 151.39 113.37 148.1 116.67 151.39 119.52 148.54 116.23 145.24 119.52 141.95"/><polygon class="cls-1" points="138.29 141.95 135.43 139.09 132.14 142.38 128.84 139.09 125.99 141.95 129.28 145.24 125.99 148.54 128.84 151.39 132.14 148.1 135.43 151.39 138.29 148.54 135 145.24 138.29 141.95"/><polygon class="cls-1" points="157.06 141.95 154.2 139.09 150.91 142.38 147.61 139.09 144.76 141.95 148.05 145.24 144.76 148.54 147.61 151.39 150.91 148.1 154.2 151.39 157.06 148.54 153.76 145.24 157.06 141.95"/><polygon class="cls-1" points="63.22 160.32 60.36 157.46 57.07 160.76 53.77 157.46 50.91 160.32 54.21 163.62 50.91 166.91 53.77 169.77 57.07 166.47 60.36 169.77 63.22 166.91 59.92 163.62 63.22 160.32"/><polygon class="cls-1" points="81.98 160.32 79.13 157.46 75.83 160.76 72.54 157.46 69.68 160.32 72.98 163.62 69.68 166.91 72.54 169.77 75.83 166.47 79.13 169.77 81.98 166.91 78.69 163.62 81.98 160.32"/><polygon class="cls-1" points="100.75 160.32 97.9 157.46 94.6 160.76 91.31 157.46 88.45 160.32 91.75 163.62 88.45 166.91 91.31 169.77 94.6 166.47 97.9 169.77 100.75 166.91 97.46 163.62 100.75 160.32"/><polygon class="cls-1" points="119.52 160.32 116.67 157.46 113.37 160.76 110.08 157.46 107.22 160.32 110.51 163.62 107.22 166.91 110.08 169.77 113.37 166.47 116.67 169.77 119.52 166.91 116.23 163.62 119.52 160.32"/><polygon class="cls-1" points="138.29 160.32 135.43 157.46 132.14 160.76 128.84 157.46 125.99 160.32 129.28 163.62 125.99 166.91 128.84 169.77 132.14 166.47 135.43 169.77 138.29 166.91 135 163.62 138.29 160.32"/><polygon class="cls-1" points="157.06 160.32 154.2 157.46 150.91 160.76 147.61 157.46 144.76 160.32 148.05 163.62 144.76 166.91 147.61 169.77 150.91 166.47 154.2 169.77 157.06 166.91 153.76 163.62 157.06 160.32"/><polygon class="cls-1" points="64.16 80.46 61.3 77.6 58.01 80.9 54.71 77.6 51.85 80.46 55.15 83.75 51.85 87.05 54.71 89.91 58.01 86.61 61.3 89.91 64.16 87.05 60.86 83.75 64.16 80.46"/><polygon class="cls-1" points="87.15 80.46 84.29 77.6 81 80.9 77.7 77.6 74.84 80.46 78.14 83.75 74.84 87.05 77.7 89.91 81 86.61 84.29 89.91 87.15 87.05 83.85 83.75 87.15 80.46"/><polygon class="cls-1" points="110.14 80.46 107.28 77.6 103.99 80.9 100.69 77.6 97.83 80.46 101.13 83.75 97.83 87.05 100.69 89.91 103.99 86.61 107.28 89.91 110.14 87.05 106.84 83.75 110.14 80.46"/><polygon class="cls-1" points="133.13 80.46 130.27 77.6 126.98 80.9 123.68 77.6 120.83 80.46 124.12 83.75 120.83 87.05 123.68 89.91 126.98 86.61 130.27 89.91 133.13 87.05 129.83 83.75 133.13 80.46"/><polygon class="cls-1" points="156.12 80.46 153.26 77.6 149.97 80.9 146.67 77.6 143.82 80.46 147.11 83.75 143.82 87.05 146.67 89.91 149.97 86.61 153.26 89.91 156.12 87.05 152.82 83.75 156.12 80.46"/><polygon class="cls-1" points="64.16 108.66 61.3 105.81 58.01 109.1 54.71 105.81 51.85 108.66 55.15 111.96 51.85 115.25 54.71 118.11 58.01 114.81 61.3 118.11 64.16 115.25 60.86 111.96 64.16 108.66"/><polygon class="cls-1" points="87.15 108.66 84.29 105.81 81 109.1 77.7 105.81 74.84 108.66 78.14 111.96 74.84 115.25 77.7 118.11 81 114.81 84.29 118.11 87.15 115.25 83.85 111.96 87.15 108.66"/><polygon class="cls-1" points="110.14 108.66 107.28 105.81 103.99 109.1 100.69 105.81 97.83 108.66 101.13 111.96 97.83 115.25 100.69 118.11 103.99 114.81 107.28 118.11 110.14 115.25 106.84 111.96 110.14 108.66"/><polygon class="cls-1" points="133.13 108.66 130.27 105.81 126.98 109.1 123.68 105.81 120.83 108.66 124.12 111.96 120.83 115.25 123.68 118.11 126.98 114.81 130.27 118.11 133.13 115.25 129.83 111.96 133.13 108.66"/><polygon class="cls-1" points="156.12 108.66 153.26 105.81 149.97 109.1 146.67 105.81 143.82 108.66 147.11 111.96 143.82 115.25 146.67 118.11 149.97 114.81 153.26 118.11 156.12 115.25 152.82 111.96 156.12 108.66"/><path class="cls-1" d="M183.69,197.81H24.28V10.43H183.69ZM28.76,193.33H179.21V14.91H28.76Z"/></svg>