<svg id="Layer_1" data-name="Layer 1" xmlns="http://www.w3.org/2000/svg" viewBox="0 0 207.51 207.51"><defs><style>.cls-1{fill:#2a2a26;}</style></defs><title>Plot_Icons_Articles</title><polygon class="cls-1" points="56.05 42.06 52.65 38.64 48.7 42.56 44.78 38.61 41.35 42.02 45.28 45.97 41.33 49.89 44.73 53.31 48.68 49.39 52.6 53.34 56.03 49.94 52.1 45.99 56.05 42.06"/><polygon class="cls-1" points="83.52 42.16 80.12 38.73 76.17 42.66 72.25 38.71 68.83 42.11 72.75 46.06 68.8 49.98 72.2 53.41 76.15 49.48 80.07 53.43 83.5 50.03 79.57 46.08 83.52 42.16"/><polygon class="cls-1" points="111 42.25 107.59 38.82 103.64 42.75 99.72 38.8 96.3 42.2 100.22 46.15 96.27 50.07 99.67 53.5 103.62 49.57 107.55 53.52 110.97 50.12 107.05 46.17 111 42.25"/><polygon class="cls-1" points="138.47 42.34 135.06 38.92 131.12 42.84 127.19 38.89 123.77 42.29 127.69 46.24 123.74 50.16 127.14 53.59 131.09 49.67 135.02 53.62 138.44 50.21 134.52 46.26 138.47 42.34"/><rect class="cls-1" x="118.95" y="43.41" width="4.89" height="53.91" transform="translate(50.63 191.52) rotate(-89.81)"/><rect class="cls-1" x="118.91" y="56.44" width="4.89" height="53.91" transform="translate(37.56 204.46) rotate(-89.81)"/><rect class="cls-1" x="118.87" y="69.47" width="4.89" height="53.91" transform="translate(24.48 217.41) rotate(-89.81)"/><rect class="cls-1" x="118.82" y="82.5" width="4.89" height="53.91" transform="translate(11.41 230.35) rotate(-89.81)"/><rect class="cls-1" x="87.83" y="64.48" width="4.89" height="115.81" transform="translate(-32.41 212.24) rotate(-89.81)"/><rect class="cls-1" x="87.78" y="77.51" width="4.89" height="115.81" transform="translate(-45.49 225.19) rotate(-89.81)"/><rect class="cls-1" x="87.74" y="90.54" width="4.89" height="115.81" transform="translate(-58.56 238.13) rotate(-89.81)"/><rect class="cls-1" x="87.7" y="103.57" width="4.89" height="115.81" transform="translate(-71.64 251.08) rotate(-89.81)"/><path class="cls-1" d="M85.49,67.73l-52.94-.18L32.4,111.6l52.94.18Zm-5,39.15-43.16-.15.11-34.27,43.17.14Z"/><path class="cls-1" d="M166.85,95l.28-83L14.29,11.49l-.51,154a30,30,0,0,0,29.83,30L177.1,196v0c.14,0,.27,0,.41,0,8.76,0,15.91-8.35,15.94-18.68l.28-82.27ZM18.66,165.56l.5-149.17,143.07.48L162,95l-.27,82.26a20.29,20.29,0,0,0,5.18,13.87l-123.25-.42A25.06,25.06,0,0,1,18.66,165.56Zm169.91,11.76c0,7.64-5,13.83-11,13.81s-11-6.25-10.95-13.88l.26-77.38,22,.08Z"/></svg>