<svg id="Layer_1" data-name="Layer 1" xmlns="http://www.w3.org/2000/svg" viewBox="0 0 207.51 207.51"><defs><style>.cls-1{fill:#2a2a26;}</style></defs><title>Plot_Icons_FAQs</title><path class="cls-1" d="M62,105,66,101l3.4,3.43-4,3.92,3.93,4-3.43,3.4L62,111.79l-4,3.93-3.4-3.43,4-3.92-3.93-4L58.1,101Zm63.17-17.42L121.77,91l3.92,4-4,3.92,3.4,3.42,4-3.92,3.92,4,3.43-3.4-3.92-4L136.47,91l-3.41-3.43-3.95,3.93Zm36,0L157.77,91l3.92,4-3.95,3.92,3.4,3.42,4-3.92,3.92,4,3.43-3.4-3.92-4L172.47,91l-3.41-3.43-3.95,3.93ZM200,168.43H181l0,24-35.52-24h-51v-31H62l-35.53,24,.06-24H7.5V26.93H113v31h87Zm-91.5-35.5V31.43H12v101.5H31.06l0,20,29.63-20Zm87-70.5H113v75H99v26.5h47.87l29.62,20,0-20H195.5Zm-32.65,62.25h-4.5a11.25,11.25,0,0,1-22.5,0h-4.5a15.75,15.75,0,0,0,31.5,0ZM64,79.27A15.75,15.75,0,1,0,46,63.68h4.5A11.25,11.25,0,1,1,61.75,74.93H59.5V91.18H64Z"/></svg>