<svg id="Layer_1" data-name="Layer 1" xmlns="http://www.w3.org/2000/svg" viewBox="0 0 207.51 207.51"><defs><style>.cls-1{fill:#2a2a26;}</style></defs><title>Plot_Icons_Formfills</title><path class="cls-1" d="M44.75,87.29h118V70h-118Zm4.53-12.76H158.22v8.23H49.28Z"/><rect class="cls-1" x="44.75" y="57.23" width="42.83" height="4.53"/><rect class="cls-1" x="44.75" y="113.96" width="42.83" height="4.53"/><path class="cls-1" d="M44.75,144h118v-17.3h-118Zm4.53-12.77H158.22v8.24H49.28Z"/><path class="cls-1" d="M95.33,178.07h66.94v-17.3H95.33Zm4.53-12.77h57.88v8.24H99.86Z"/><rect class="cls-1" x="44.75" y="102.62" width="118" height="4.53"/><polygon class="cls-1" points="57.48 162.6 53.83 166.26 50.18 162.6 47.02 165.77 50.67 169.42 47.02 173.07 50.18 176.24 53.83 172.59 57.48 176.24 60.65 173.07 57 169.42 60.65 165.77 57.48 162.6"/><polygon class="cls-1" points="82.96 162.6 79.31 166.26 75.66 162.6 72.49 165.77 76.14 169.42 72.49 173.07 75.66 176.24 79.31 172.59 82.96 176.24 86.13 173.07 82.47 169.42 86.13 165.77 82.96 162.6"/><path class="cls-1" d="M142.19,21V12.09H115.74a12.2,12.2,0,0,0-24,0H65.32v9H24.44V205.35H183.07V21ZM69.85,16.62H96.09V14.35a7.67,7.67,0,0,1,15.33,0v2.27h26.24V31.94H69.85Zm108.68,184.2H29V25.57H65.32V36.48h76.87V25.57h36.34Z"/></svg>