<svg id="Layer_1" data-name="Layer 1" xmlns="http://www.w3.org/2000/svg" viewBox="0 0 207.51 207.51"><defs><style>.cls-1{fill:#2a2a26;}</style></defs><title>Plot_Icons_Gallery</title><polygon class="cls-1" points="53.64 94.94 50.54 98.03 54.09 101.6 50.51 105.16 53.59 108.26 57.17 104.7 60.72 108.28 63.83 105.2 60.27 101.62 63.85 98.07 60.77 94.97 57.19 98.52 53.64 94.94"/><path class="cls-1" d="M32.82,76.36l3.58-3.55,3.08,3.1L35.9,79.46,39.46,83l-3.1,3.08L32.8,82.54,29.22,86.1,26.14,83l3.58-3.55-3.55-3.58,3.1-3.08Zm161.93,82.17H176.64v17.2H12.75V49H30.87V31.77H194.75Zm-22.61,0v-105H17.25V171.23H172.14ZM190.25,36.27H35.37V49H176.64V154h13.61ZM72.07,79.75A15.84,15.84,0,1,1,87.9,95.59,15.85,15.85,0,0,1,72.07,79.75Zm4.5,0A11.34,11.34,0,1,0,87.9,68.42,11.35,11.35,0,0,0,76.57,79.75ZM134,81l30.34,32.48v49.37H21.83l52.5-52.51,15.19,15.19Zm-.11,6.47L124,97.41l9.77,9.76,9.58-9.58Zm25.95,27.78-13.44-14.38-12.65,12.65-12.95-13L82.13,139.3,79,136.11l7.38-7.38-12-12L32.7,158.37H159.88Z"/></svg>