<svg id="Layer_1" data-name="Layer 1" xmlns="http://www.w3.org/2000/svg" viewBox="0 0 207.51 207.51"><defs><style>.cls-1{fill:#2a2a26;}</style></defs><title>Plot_Icons_Homepage</title><path class="cls-1" d="M67,119.28l4,4-3.42,3.42-4-4-3.94,4-3.42-3.42,3.94-4-3.94-3.94,3.42-3.42,3.94,4,4-4,3.42,3.42Zm87.92-4.53-3.42-3.42-3.95,3.94-3.94-3.94-3.42,3.42,3.94,3.94-3.94,4,3.42,3.41,3.94-3.94,3.95,3.94,3.42-3.41-3.95-4ZM112.54,75.32l-3.42-3.42-3.94,3.95-3.94-3.95-3.42,3.42,3.94,4-3.94,3.94,3.42,3.42,3.94-3.94,3.94,3.94,3.42-3.42-3.94-3.94Zm61.6,31.8h31.6L167.06,72.55V39.84H145v13l-39.95-35.7-100.66,90H36v89.8h138.1Zm-133.6-4.5H16.22L105.09,23.2l44.45,39.73V44.34h13V74.56L194,102.62H169.64v89.8H40.54Zm83,39.43H86.63v54.87h36.91Zm-32.41,4.5H119v45.87H91.13Z"/></svg>