<svg id="Layer_1" data-name="Layer 1" xmlns="http://www.w3.org/2000/svg" viewBox="0 0 207.51 207.51"><defs><style>.cls-1,.cls-2{fill:#2a2a26;}.cls-2{fill-rule:evenodd;}</style></defs><title>Plot_Icons_Expinfopages</title><polygon class="cls-1" points="119.02 62.39 115.95 59.32 112.42 62.86 108.88 59.32 105.81 62.39 109.35 65.93 105.81 69.47 108.88 72.53 112.42 68.99 115.95 72.53 119.02 69.47 115.48 65.93 119.02 62.39"/><polygon class="cls-1" points="76.28 75.6 73.21 72.53 69.67 76.07 66.14 72.53 63.07 75.6 66.61 79.14 63.07 82.67 66.14 85.74 69.67 82.2 73.21 85.74 76.28 82.67 72.74 79.14 76.28 75.6"/><polygon class="cls-1" points="158.17 96.49 155.11 93.43 151.57 96.96 148.03 93.43 144.96 96.49 148.5 100.03 144.96 103.57 148.03 106.64 151.57 103.1 155.11 106.64 158.17 103.57 154.63 100.03 158.17 96.49"/><polygon class="cls-1" points="169.85 129.63 166.79 126.56 163.25 130.1 159.71 126.56 156.65 129.63 160.18 133.17 156.65 136.7 159.71 139.77 163.25 136.23 166.79 139.77 169.85 136.7 166.32 133.17 169.85 129.63"/><polygon class="cls-2" points="115.27 92.94 150.09 68.13 151.57 70.39 122.81 103.38 115.27 92.94"/><path class="cls-2" d="M67.71,176.83a96.47,96.47,0,0,1,.79-55.28A80.77,80.77,0,0,1,97.91,80.41l1.75,12.21.2,1.44,1.43.21,11.57,1.79,26,28.78V135l-36-2.91-3.3-.27,1.38,3,19.27,42h4.27l-18.63-40.6L140.69,139l2.1.17V123.37l-.51-.57-27-29.86-.47-.52-.67-.11L103.3,90.64l-2-13.91-.44-3.06L98.3,75.39a84.49,84.49,0,0,0-33.5,45,100.44,100.44,0,0,0-1.13,56.46Z"/><rect class="cls-1" x="79.37" y="98.26" width="4.59" height="15.18" transform="translate(-50.93 88.75) rotate(-45)"/><rect class="cls-1" x="73.78" y="106.17" width="4.59" height="15.18" transform="translate(-58.16 87.12) rotate(-45)"/><rect class="cls-1" x="67.38" y="127.29" width="4.59" height="15.18" transform="translate(-74.97 88.77) rotate(-45)"/><rect class="cls-1" x="69.5" y="116.52" width="4.59" height="15.18" transform="translate(-66.73 87.12) rotate(-45)"/><circle class="cls-1" cx="105.56" cy="106" r="4.03"/><rect class="cls-1" x="17.63" y="37.62" width="5.34" height="5.34"/><rect class="cls-1" x="28.31" y="37.62" width="5.34" height="5.34"/><rect class="cls-1" x="39" y="37.62" width="5.34" height="5.34"/><path class="cls-1" d="M204.17,177.15H3.34v-149H204.17ZM7.78,172.71h192V32.57H7.78Z"/><rect class="cls-1" x="5.46" y="46.95" width="196.49" height="4.67"/></svg>