<svg id="Layer_1" data-name="Layer 1" xmlns="http://www.w3.org/2000/svg" viewBox="0 0 207.51 207.51"><defs><style>.cls-1{fill:#2a2a26;}</style></defs><title>Plot_Icons_Sponsors</title><path class="cls-1" d="M204.93,95.25h-30.1v-21H32.15v21H2.58l14.27,19-14.27,19H57.87v-21h91.76v21h55.3l-14.28-19ZM11.19,128.94l11-14.7-11-14.69h21v12.71l18.31,16.68Zm42.38-3L38.16,112.26H53.57ZM36.45,108V78.57H170.53V108Zm117.48,4.3h15.42L153.93,126Zm42.39,16.68H157.05l17.78-16.68V99.55h21.49l-11,14.69Z"/><polygon class="cls-1" points="73.95 89.8 70.95 86.79 67.49 90.26 64.02 86.79 61.02 89.8 64.48 93.26 61.02 96.73 64.02 99.73 67.49 96.27 70.95 99.73 73.95 96.73 70.49 93.26 73.95 89.8"/><polygon class="cls-1" points="98.13 89.8 95.13 86.79 91.66 90.26 88.2 86.79 85.19 89.8 88.66 93.26 85.19 96.73 88.2 99.73 91.66 96.27 95.13 99.73 98.13 96.73 94.67 93.26 98.13 89.8"/><polygon class="cls-1" points="122.31 89.8 119.31 86.79 115.84 90.26 112.38 86.79 109.37 89.8 112.84 93.26 109.37 96.73 112.38 99.73 115.84 96.27 119.31 99.73 122.31 96.73 118.84 93.26 122.31 89.8"/><polygon class="cls-1" points="146.49 89.8 143.49 86.79 140.02 90.26 136.56 86.79 133.55 89.8 137.02 93.26 133.55 96.73 136.56 99.73 140.02 96.27 143.49 99.73 146.49 96.73 143.02 93.26 146.49 89.8"/></svg>