<svg id="Layer_1" data-name="Layer 1" xmlns="http://www.w3.org/2000/svg" viewBox="0 0 207.51 207.51"><defs><style>.cls-1{fill:#2a2a26;}</style></defs><title>Plot_Icons_Stages</title><polygon class="cls-1" points="69.41 41.69 66.44 38.72 63.01 42.15 59.58 38.72 56.6 41.69 60.03 45.12 56.6 48.55 59.58 51.52 63.01 48.09 66.44 51.52 69.41 48.55 65.98 45.12 69.41 41.69"/><polygon class="cls-1" points="96.5 41.69 93.52 38.72 90.09 42.15 86.67 38.72 83.69 41.69 87.12 45.12 83.69 48.55 86.67 51.52 90.09 48.09 93.52 51.52 96.5 48.55 93.07 45.12 96.5 41.69"/><polygon class="cls-1" points="123.58 41.69 120.61 38.72 117.18 42.15 113.75 38.72 110.78 41.69 114.21 45.12 110.78 48.55 113.75 51.52 117.18 48.09 120.61 51.52 123.58 48.55 120.15 45.12 123.58 41.69"/><polygon class="cls-1" points="150.67 41.69 147.7 38.72 144.27 42.15 140.84 38.72 137.87 41.69 141.3 45.12 137.87 48.55 140.84 51.52 144.27 48.09 147.7 51.52 150.67 48.55 147.24 45.12 150.67 41.69"/><path class="cls-1" d="M190.62,61.91h8.56l-2.12-3.53c-.86-1.43-21.82-35-93-35h-.78c-71.22,0-92.18,33.56-93,35L8.1,61.91h8.56V165.6H9.89v25h47.4v6.78H150v-6.78h47.4v-25h-6.77ZM164.5,113.75l10.24-10.25L185,113.75,174.74,124Zm6.95,13.55-7.92,7.91V119.38Zm-7.92-19.17V92.29l7.92,7.92Zm1-21.47,10.24-10.24L185,86.66,174.74,96.91Zm-1-5.62V65.2l7.92,7.92Zm1,59.8,10.24-10.25L185,140.84l-10.25,10.25Zm6.95,13.54-7.92,7.92V146.47ZM186,146.47V162.3L178,154.38ZM178,127.3l7.92-7.92v15.83Zm0-27.09L186,92.29v15.84Zm0-27.09L186,65.2V81Zm-3.3-3.3-7.91-7.91h15.83Zm-15.87,1H48.41V61.91H158.87ZM43.75,81l-7.92-7.92,7.92-7.92Zm-1,5.62L32.53,96.91,22.28,86.66,32.53,76.42Zm1,5.63v15.84l-7.92-7.92Zm-1,21.46L32.53,124,22.28,113.75,32.53,103.5Zm1,5.63v15.83l-7.92-7.91Zm-1,21.46L32.53,151.09,22.28,140.84l10.25-10.25Zm1,5.63V162.3l-7.92-7.92ZM32.53,69.82l-7.91-7.91H40.45Zm-3.29,3.3L21.32,81V65.2Zm0,27.09-7.92,7.92V92.29Zm0,27.09-7.92,7.91V119.38Zm0,27.08-7.92,7.92V146.47Zm3.29,3.3,7.92,7.92H24.62ZM48.41,75.45H60.68V81H57.29v4.66H68.72V81H65.34v-5.5H87.76V81H84.38v4.66H95.81V81H92.43v-5.5h22.42V81h-3.39v4.66H122.9V81h-3.39v-5.5h22.43V81h-3.39v4.66H150V81H146.6v-5.5h12.27V165.6H48.41Zm126.33,82.23,7.92,7.92H166.83ZM32.74,44.45c12.42-7.48,34.74-16.4,70.51-16.4H104c54.67,0,78.72,20.73,86.25,29.2H17A66.76,66.76,0,0,1,32.74,44.45ZM145.33,192.68H62V183.8h83.38Zm47.4-6.77H150v-6.77H57.29v6.77H14.55V170.26H192.73Z"/></svg>