<svg id="Layer_1" data-name="Layer 1" xmlns="http://www.w3.org/2000/svg" viewBox="0 0 207.51 207.51"><defs><style>.cls-1{fill:#2a2a26;}</style></defs><title>Plot_Icons_Flexicon</title><rect class="cls-1" x="19.94" y="20.51" width="5.2" height="5.2"/><rect class="cls-1" x="30.33" y="20.51" width="5.2" height="5.2"/><rect class="cls-1" x="40.73" y="20.51" width="5.2" height="5.2"/><path class="cls-1" d="M201.48,196.24H6v-185H201.48ZM10.35,191.92h186.8V15.59H10.35Z"/><rect class="cls-1" x="8.1" y="29.59" width="191.22" height="4.55"/><path class="cls-1" d="M176.77,85.44H27.62V45.62H176.77Zm-145.14-4H172.76V49.63H31.63Z"/><path class="cls-1" d="M176.77,137.07H27.62V90.44H176.77Zm-145.14-4H172.76V94.45H31.63Z"/><polygon class="cls-1" points="61.95 62.09 58.96 59.1 55.52 62.55 52.08 59.1 49.09 62.09 52.54 65.53 49.09 68.97 52.08 71.96 55.52 68.51 58.96 71.96 61.95 68.97 58.51 65.53 61.95 62.09"/><polygon class="cls-1" points="93.06 62.09 90.08 59.1 86.64 62.55 83.19 59.1 80.21 62.09 83.65 65.53 80.21 68.97 83.19 71.96 86.64 68.51 90.08 71.96 93.06 68.97 89.62 65.53 93.06 62.09"/><polygon class="cls-1" points="124.18 62.09 121.19 59.1 117.75 62.55 114.31 59.1 111.32 62.09 114.77 65.53 111.32 68.97 114.31 71.96 117.75 68.51 121.19 71.96 124.18 68.97 120.74 65.53 124.18 62.09"/><polygon class="cls-1" points="155.29 62.09 152.31 59.1 148.87 62.55 145.42 59.1 142.44 62.09 145.88 65.53 142.44 68.97 145.42 71.96 148.87 68.51 152.31 71.96 155.29 68.97 151.85 65.53 155.29 62.09"/><polygon class="cls-1" points="54.47 106.44 51.48 103.46 48.04 106.9 44.6 103.46 41.61 106.44 45.06 109.89 41.61 113.33 44.6 116.31 48.04 112.87 51.48 116.31 54.47 113.33 51.02 109.89 54.47 106.44"/><polygon class="cls-1" points="74.79 116.98 71.81 114 68.36 117.44 64.92 114 61.94 116.98 65.38 120.43 61.94 123.87 64.92 126.86 68.36 123.41 71.81 126.86 74.79 123.87 71.35 120.43 74.79 116.98"/><polygon class="cls-1" points="92.82 107.85 89.83 104.86 86.39 108.31 82.95 104.86 79.96 107.85 83.41 111.29 79.96 114.74 82.95 117.72 86.39 114.28 89.83 117.72 92.82 114.74 89.38 111.29 92.82 107.85"/><polygon class="cls-1" points="50.77 157.62 47.78 154.63 44.34 158.08 40.9 154.63 37.91 157.62 41.35 161.06 37.91 164.51 40.9 167.49 44.34 164.05 47.78 167.49 50.77 164.51 47.32 161.06 50.77 157.62"/><path class="cls-1" d="M60.79,177.52H27.89V144.61h32.9Zm-28.67-4.24H56.56V148.84H32.12Z"/><polygon class="cls-1" points="89.43 157.62 86.44 154.63 83 158.08 79.56 154.63 76.57 157.62 80.01 161.06 76.57 164.51 79.56 167.49 83 164.05 86.44 167.49 89.43 164.51 85.98 161.06 89.43 157.62"/><path class="cls-1" d="M99.45,177.52H66.55V144.61h32.9Zm-28.67-4.24H95.22V148.84H70.78Z"/><polygon class="cls-1" points="128.09 157.62 125.1 154.63 121.66 158.08 118.21 154.63 115.23 157.62 118.67 161.06 115.23 164.51 118.21 167.49 121.66 164.05 125.1 167.49 128.09 164.51 124.64 161.06 128.09 157.62"/><path class="cls-1" d="M138.11,177.52H105.2V144.61h32.91Zm-28.67-4.24h24.44V148.84H109.44Z"/><polygon class="cls-1" points="166.74 157.62 163.76 154.63 160.31 158.08 156.87 154.63 153.89 157.62 157.33 161.06 153.89 164.51 156.87 167.49 160.31 164.05 163.76 167.49 166.74 164.51 163.3 161.06 166.74 157.62"/><path class="cls-1" d="M176.77,177.52H143.86V144.61h32.91Zm-28.68-4.24h24.45V148.84H148.09Z"/><rect class="cls-1" x="105.71" y="107.19" width="54.34" height="4.01"/><rect class="cls-1" x="105.71" y="118.06" width="54.34" height="4.01"/></svg>