<svg id="Layer_1" data-name="Layer 1" xmlns="http://www.w3.org/2000/svg" viewBox="0 0 207.51 207.51"><defs><style>.cls-1{fill:#2a2a26;}</style></defs><title>Plot_Icons_Analytics</title><path class="cls-1" d="M17.77,162.91,21.72,159l3.4,3.43-3.95,3.92,3.93,3.95-3.43,3.4-3.92-4-3.95,3.93-3.4-3.43,3.95-3.92-3.93-3.95,3.43-3.4Zm-3.83-31.42-3.43,3.4,3.93,4-3.95,3.92,3.4,3.43,3.95-3.93,3.92,4,3.43-3.4-3.93-3.95,3.95-3.92-3.4-3.43-3.95,3.93ZM14,104l-3.42,3.4,3.92,4-3.95,3.92,3.4,3.43,3.95-3.93,3.93,3.95,3.42-3.4-3.92-4,3.95-3.92L21.9,104,18,108Zm.09-27.47L10.7,80l3.92,4-3.95,3.92,3.4,3.42L18,87.32l3.93,4,3.42-3.4-3.92-4L25.4,80,22,76.57,18.05,80.5ZM196.93,182.93H9.43v4.5h187.5Zm0-121h-21.5v113.5h21.5Zm-17,4.5h12.5v104.5h-12.5Zm-11.54,20.5h-21.5v88.5h21.5Zm-17,4.5h12.5v79.5h-12.5Zm-11.55-64.5h-21.5v148.5h21.5Zm-17,4.5h12.5v139.5h-12.5Zm-11.55,30.5H89.79v113.5h21.5Zm-17,4.5h12.5v104.5H94.29Zm-11.55,56.5H61.24v52.5h21.5Zm-17,4.5h12.5v43.5H65.74ZM54.19,92.93H32.69v82.5h21.5Zm-17,4.5h12.5v73.5H37.19Z"/></svg>