<svg id="Layer_1" data-name="Layer 1" xmlns="http://www.w3.org/2000/svg" viewBox="0 0 207.51 207.51"><defs><style>.cls-1{fill:#2a2a26;}</style></defs><title>Plot_Icons_Prereg_early</title><polygon class="cls-1" points="17.35 40.7 13.58 44.48 9.8 40.7 6.53 43.97 10.3 47.75 6.53 51.53 9.8 54.8 13.58 51.02 17.35 54.8 20.63 51.53 16.85 47.75 20.63 43.97 17.35 40.7"/><polygon class="cls-1" points="52.23 18.27 56.01 14.49 59.78 18.27 63.06 14.99 59.28 11.21 63.06 7.44 59.78 4.16 56.01 7.94 52.23 4.16 48.96 7.44 52.73 11.21 48.96 14.99 52.23 18.27"/><polygon class="cls-1" points="200.98 47.05 197.71 43.78 193.93 47.56 190.15 43.78 186.88 47.05 190.65 50.83 186.88 54.61 190.15 57.88 193.93 54.1 197.71 57.88 200.98 54.61 197.2 50.83 200.98 47.05"/><polygon class="cls-1" points="140.27 27.07 144.04 23.29 147.82 27.07 151.09 23.8 147.32 20.02 151.09 16.24 147.82 12.97 144.04 16.74 140.27 12.97 136.99 16.24 140.77 20.02 136.99 23.8 140.27 27.07"/><path class="cls-1" d="M101.43,71.05a58,58,0,1,0,57.95,58A58,58,0,0,0,101.43,71.05Zm0,110.05A52.09,52.09,0,1,1,153.52,129,52.15,52.15,0,0,1,101.43,181.1Z"/><rect class="cls-1" x="77.18" y="88.73" width="5.87" height="5.04" transform="matrix(0.87, -0.5, 0.5, 0.87, -34.89, 52.28)"/><rect class="cls-1" x="61.16" y="104.44" width="5.87" height="5.04" transform="translate(-60.59 108.96) rotate(-59.99)"/><rect class="cls-1" x="55.55" y="125.65" width="5.04" height="5.87"/><rect class="cls-1" x="61.15" y="147.39" width="5.03" height="5.87" transform="matrix(0.87, -0.5, 0.5, 0.87, -66.62, 51.96)"/><rect class="cls-1" x="76.86" y="163.41" width="5.03" height="5.87" transform="translate(-104.37 151.94) rotate(-60.01)"/><rect class="cls-1" x="98.07" y="169.85" width="5.87" height="5.04"/><rect class="cls-1" x="119.81" y="164.26" width="5.87" height="5.04" transform="translate(-66.93 83.69) rotate(-29.99)"/><rect class="cls-1" x="135.83" y="148.54" width="5.87" height="5.04" transform="translate(-61.43 195.73) rotate(-60.01)"/><rect class="cls-1" x="142.27" y="126.5" width="5.04" height="5.87"/><rect class="cls-1" x="136.67" y="104.76" width="5.03" height="5.87" transform="translate(-35.2 84.03) rotate(-30)"/><rect class="cls-1" x="120.96" y="88.74" width="5.04" height="5.87" transform="translate(-17.64 152.78) rotate(-60.01)"/><path class="cls-1" d="M170.75,129A69.19,69.19,0,0,0,145.1,75.23l3-5.12,13.74,7.94,1.47-2.54a20.42,20.42,0,0,0-35.37-20.42l-1.46,2.54L139,64.89l-2.52,4.36a68.75,68.75,0,0,0-26.27-9V56A8.56,8.56,0,1,0,93.1,56v4.17a68.62,68.62,0,0,0-26.39,8.84l-2.4-4.16,12.58-7.26-1.47-2.54A20.42,20.42,0,0,0,40.05,75.51l1.47,2.54,13.74-7.94L58.07,75a69.2,69.2,0,0,0-5.5,103.15l-6.18,10.7a9.67,9.67,0,0,0,8.35,14.51,10,10,0,0,0,2.53-.33,9.58,9.58,0,0,0,5.87-4.5l5-8.7a69.18,69.18,0,0,0,66.52,0l5,8.7a9.68,9.68,0,1,0,16.76-9.68l-6.18-10.7A69.09,69.09,0,0,0,170.75,129ZM152.85,52.7a14.56,14.56,0,0,1,6.54,17.19L134.7,55.63A14.58,14.58,0,0,1,152.85,52.7Zm-102.39,0a14.41,14.41,0,0,1,7.25-2,14.83,14.83,0,0,1,3.79.5,14.5,14.5,0,0,1,7.12,4.39L43.93,69.88A14.55,14.55,0,0,1,50.46,52.7Zm7.6,142.87a3.81,3.81,0,0,1-5.2,1.39,3.8,3.8,0,0,1-1.39-5.19L57,182.2a66.09,66.09,0,0,0,6.13,4.59ZM150,197a3.8,3.8,0,0,1-5.19-1.39l-5.07-8.78a68.88,68.88,0,0,0,6.13-4.59l5.52,9.57A3.79,3.79,0,0,1,150,197ZM99,59.74V56a2.69,2.69,0,1,1,5.38,0v3.72c-1,0-2-.07-2.92-.07S99.82,59.71,99,59.74ZM38,129A63.54,63.54,0,0,1,94.82,65.9l1.45-.11c.88-.08,1.7-.13,2.49-.16s1.77-.07,2.66-.07h0c1,0,2,0,3,.07l.91.06c.6,0,1.19.08,1.79.14l1,.08A63.45,63.45,0,1,1,38,129Z"/><path class="cls-1" d="M104.83,123.89V83.13H99v40.76a4.37,4.37,0,0,0-1.46,3.26,4.53,4.53,0,0,0,.32,1.65L85.11,152.42l5.17,2.78,12.83-23.84a4.39,4.39,0,0,0,3.19-4.21A4.35,4.35,0,0,0,104.83,123.89Z"/></svg>