<svg id="Layer_1" data-name="Layer 1" xmlns="http://www.w3.org/2000/svg" viewBox="0 0 207.51 207.51"><defs><style>.cls-1{fill:#2a2a26;}</style></defs><title>Plot_Icons_Sitestatus</title><path class="cls-1" d="M89.3,22.94l3.81-3.81-3.81-3.8L92.6,12l3.8,3.81L100.2,12l3.3,3.3-3.8,3.8,3.8,3.81-3.3,3.29-3.8-3.8-3.8,3.8ZM54.21,26.23l3.8-3.8,3.8,3.8,3.3-3.29-3.8-3.81,3.8-3.8L61.81,12,58,15.84,54.21,12l-3.3,3.3,3.8,3.8-3.8,3.81Zm54.63,30.69,3.8-3.8,3.81,3.8,3.29-3.29-3.8-3.81,3.8-3.8-3.29-3.3-3.81,3.81-3.8-3.81-3.3,3.3,3.81,3.8-3.81,3.81ZM149.2,161.34V195h-4.74V166.08H66.9V195H62.16V161.34h4.7l-.07-.56a25.19,25.19,0,0,0-25-22.29,11.46,11.46,0,0,1,0-22.91,47.78,47.78,0,0,1,24.46,6.69l.76.45V70.5l0-.09-1,.19.77-.39a21.5,21.5,0,1,1,23.36-.09l-.23.14v15l.77-.47a11.44,11.44,0,0,1,14,1.69c.21.21.41.43.61.66l.37.44.38-.44c.2-.23.41-.45.62-.66a11.41,11.41,0,0,1,16.18,0q.31.31.6.66l.38.44.38-.44c.2-.23.41-.46.63-.67a11.41,11.41,0,0,1,16.17,0,11.42,11.42,0,0,1,3.37,8.11v66.76ZM67,52.07a11.45,11.45,0,1,1,22.9,0V63.32l.75-.08.14-.15a16.6,16.6,0,1,0-24.66.2L66,63l1,0Zm72.66,42.51a6.72,6.72,0,0,0-2-4.76,6.73,6.73,0,0,0-11.46,4.76,2.38,2.38,0,0,1-4.75,0,6.71,6.71,0,0,0-13.42,0,2.37,2.37,0,0,1-4.74,0,6.71,6.71,0,1,0-13.42,0,2.37,2.37,0,1,1-4.74,0V52.07a6.71,6.71,0,0,0-13.42,0v75.16a2.36,2.36,0,0,1-1.32,2.13,2.33,2.33,0,0,1-2.48-.24,43,43,0,0,0-26.16-8.8,6.72,6.72,0,0,0,0,13.43,29.82,29.82,0,0,1,29.83,27.14l0,.45h68ZM38,56.92l3.8-3.8,3.8,3.8,3.3-3.29-3.8-3.81,3.8-3.8-3.3-3.3-3.8,3.81L38,42.72,34.67,46l3.8,3.8-3.8,3.81Zm93.66,117.77a4.55,4.55,0,0,0-1.85.41,3.83,3.83,0,0,0-2.76,3.66,3.61,3.61,0,0,0,.18,1.09,4.49,4.49,0,1,0,4.43-5.16Z"/></svg>