<svg id="Layer_1" data-name="Layer 1" xmlns="http://www.w3.org/2000/svg" viewBox="0 0 207.51 207.51"><defs><style>.cls-1{fill:#2a2a26;}</style></defs><title>Plot_Icons_Social</title><polygon class="cls-1" points="40.07 61.24 44.02 57.32 47.95 61.27 51.37 57.87 47.45 53.92 51.4 50 48 46.57 44.05 50.5 40.12 46.55 36.7 49.95 40.62 53.9 36.67 57.82 40.07 61.24"/><polygon class="cls-1" points="76.07 74.25 80.02 70.32 83.95 74.27 87.37 70.87 83.45 66.92 87.4 63 84 59.57 80.05 63.5 76.12 59.55 72.7 62.95 76.62 66.9 72.67 70.82 76.07 74.25"/><path class="cls-1" d="M91.68,174.63a4.5,4.5,0,1,0-4.5-4.5A4.51,4.51,0,0,0,91.68,174.63Z"/><path class="cls-1" d="M190.26,124.06a11,11,0,0,0-7.75-18.72H148.38l.3-.7a54.92,54.92,0,0,0,4.56-22V77.19a11,11,0,0,0-21.94,0A26.06,26.06,0,0,1,129,88.05a29.78,29.78,0,0,1-6.64,9.86,25.7,25.7,0,0,1-15.88,7.31v0h0V95.43H65.93v90.5h40.5v-6.42h61.5A11,11,0,0,0,176.75,162l-.39-.51.6-.25a11,11,0,0,0,6.77-10.14,10.81,10.81,0,0,0-2.16-6.51l-.38-.51.59-.25a11,11,0,0,0,4.64-16.63l-.38-.51.59-.25A10.87,10.87,0,0,0,190.26,124.06Zm-88.33,57.37H70.43V99.93h31.5Zm80.58-58.69H168.43v4.54h9.15a6.44,6.44,0,0,1,0,12.88h-9.15v4.53h4.32a6.44,6.44,0,1,1,0,12.88h-4.32v4.55a6.44,6.44,0,0,1-.5,12.86h-61.5V109.79h0a30.27,30.27,0,0,0,19.06-8.64,34.54,34.54,0,0,0,7.64-11.34,30.51,30.51,0,0,0,2.7-12.61,6.44,6.44,0,0,1,12.88,0v5.42a51.61,51.61,0,0,1-1.48,12.23,53.63,53.63,0,0,1-4.47,11.71L141,109.87h41.48a6.44,6.44,0,0,1,0,12.87Z"/><path class="cls-1" d="M106.89,27.93h-90V90H32.48l0,17.59L53.12,90h53.77Zm-4.5,57.54H51.46L37,97.81l0-12.34H21.43v-53h81Z"/></svg>