<svg id="Layer_1" data-name="Layer 1" xmlns="http://www.w3.org/2000/svg" viewBox="0 0 207.51 207.51"><defs><style>.cls-1{fill:#2a2a26;}</style></defs><title>Plot_Icons_Tickets</title><rect class="cls-1" x="85.16" y="141.26" width="66.57" height="5.34" transform="matrix(0.92, -0.39, 0.39, 0.92, -47.06, 58.18)"/><rect class="cls-1" x="65.82" y="152.44" width="4.67" height="6.27" transform="translate(-55.69 39.34) rotate(-23.16)"/><rect class="cls-1" x="80.1" y="129.45" width="66.57" height="5.34" transform="translate(-42.82 55.23) rotate(-23.15)"/><path class="cls-1" d="M179.52,113A17.2,17.2,0,0,1,157,104a16.31,16.31,0,0,1-.87-2.64l43.73-18.71-8.76-20.48-2.46,1a17.18,17.18,0,0,1-13.51-31.6l2.46-1-8.77-20.48-152,65,8.77,20.49,2.45-1a17.21,17.21,0,0,1,22.56,9,17.61,17.61,0,0,1,1,3.24L7.67,124.89l8.76,20.49,2.46-1a17.18,17.18,0,1,1,13.52,31.59L30,177l8.76,20.48,152-65L182,112ZM28.4,88.69l-4.62-10.8L166,17.06l4.62,10.8A22.53,22.53,0,0,0,188.2,69l4.62,10.8L50.61,140.62,46,129.82A22.53,22.53,0,0,0,28.4,88.69ZM41.52,190.44l-4.62-10.8a22.53,22.53,0,0,0-17.59-41.13l-4.62-10.8,37.06-15.12A17.17,17.17,0,0,1,41.5,126.1L39,127.15l8.76,20.49L60,142.42l2.32,5.43L66.61,146l-2.32-5.42,86.85-37.15a21.4,21.4,0,0,0,.91,2.62,22.57,22.57,0,0,0,27.06,12.76l4.62,10.8Z"/><rect class="cls-1" x="70.75" y="163.96" width="4.67" height="6.26" transform="translate(-59.83 42.21) rotate(-23.16)"/><rect class="cls-1" x="79.84" y="114.14" width="4.67" height="6.26" transform="translate(-39.49 41.76) rotate(-23.16)"/><rect class="cls-1" x="74.92" y="102.62" width="4.67" height="6.27" transform="translate(-35.36 38.9) rotate(-23.16)"/><rect class="cls-1" x="69.99" y="91.1" width="4.67" height="6.26" transform="translate(-31.23 36.03) rotate(-23.16)"/><rect class="cls-1" x="65.06" y="79.58" width="4.67" height="6.26" transform="translate(-27.1 33.17) rotate(-23.16)"/><rect class="cls-1" x="60.13" y="68.06" width="4.67" height="6.26" transform="matrix(0.92, -0.39, 0.39, 0.92, -22.96, 30.3)"/><polygon class="cls-1" points="91.08 76.35 94.5 77.72 96.08 73.78 100.03 75.36 101.4 71.94 97.45 70.36 99.03 66.41 95.61 65.04 94.03 68.98 90.08 67.4 88.71 70.82 92.66 72.41 91.08 76.35"/><rect class="cls-1" x="89.2" y="79.63" width="66.57" height="5.34" transform="translate(-22.5 54.8) rotate(-23.16)"/><rect class="cls-1" x="94.25" y="91.44" width="66.57" height="5.34" transform="matrix(0.92, -0.39, 0.39, 0.92, -26.74, 57.74)"/></svg>