<svg id="Layer_1" data-name="Layer 1" xmlns="http://www.w3.org/2000/svg" viewBox="0 0 207.51 207.51"><defs><style>.cls-1{fill:#2a2a26;}</style></defs><title>Plot_Icons_Volunteers</title><polygon class="cls-1" points="99.72 109.72 103.67 105.79 107.6 109.74 111.02 106.34 107.1 102.39 111.05 98.47 107.65 95.04 103.7 98.97 99.77 95.02 96.35 98.42 100.27 102.37 96.32 106.29 99.72 109.72"/><polygon class="cls-1" points="59.94 145.69 59.94 147.94 59.94 193.19 64.44 193.19 64.44 147.94 74.44 147.94 74.44 143.44 59.94 143.44 59.94 145.69"/><path class="cls-1" d="M162.18,77.93a17.75,17.75,0,1,0-17.75-17.75A17.77,17.77,0,0,0,162.18,77.93Zm0-31a13.25,13.25,0,1,1-13.25,13.25A13.27,13.27,0,0,1,162.18,46.93Z"/><rect class="cls-1" x="42.93" y="157.68" width="4.5" height="35.5"/><polygon class="cls-1" points="157.98 119.72 161.93 115.79 165.85 119.74 169.28 116.34 165.35 112.39 169.31 108.47 165.9 105.04 161.95 108.97 158.03 105.02 154.61 108.42 158.53 112.37 154.58 116.29 157.98 119.72"/><polygon class="cls-1" points="38.98 119.72 42.93 115.79 46.85 119.74 50.28 116.34 46.35 112.39 50.31 108.47 46.9 105.04 42.95 108.97 39.03 105.02 35.61 108.42 39.53 112.37 35.58 116.29 38.98 119.72"/><path class="cls-1" d="M103.18,57.93A22.25,22.25,0,1,0,80.93,35.68,22.27,22.27,0,0,0,103.18,57.93Zm0-40A17.75,17.75,0,1,1,85.43,35.68,17.77,17.77,0,0,1,103.18,17.93Z"/><path class="cls-1" d="M24.93,193.18h4.5V143.43h-13V107.68A17.78,17.78,0,0,1,34.18,89.93H57.92v-4.5H34.18a22.29,22.29,0,0,0-22.25,22.25v40.25h13Z"/><path class="cls-1" d="M173.18,85.43H149.45v4.5h23.73a17.77,17.77,0,0,1,17.75,17.75v35.75h-13v49.75h4.5V147.93h13V107.68A22.28,22.28,0,0,0,173.18,85.43Z"/><path class="cls-1" d="M45.18,77.93A17.75,17.75,0,1,0,27.43,60.18,17.77,17.77,0,0,0,45.18,77.93Zm0-31A13.25,13.25,0,1,1,31.93,60.18,13.27,13.27,0,0,1,45.18,46.93Z"/><rect class="cls-1" x="101.43" y="144.18" width="4.5" height="49"/><rect class="cls-1" x="159.93" y="157.68" width="4.5" height="35.5"/><path class="cls-1" d="M62.93,135.93h15.5v57.25h4.5v-70.5h-4.5v8.75h-11V90.68A23.78,23.78,0,0,1,88.74,67.06l14.94,15,14.95-15a23.77,23.77,0,0,1,21.3,23.62v40.75h-11v-8.75h-4.5v70.5h4.5V135.93h15.5V90.68a28.27,28.27,0,0,0-26.52-28.19l-1-.06L103.68,75.64,90.47,62.43l-1,.06A28.28,28.28,0,0,0,62.93,90.68Z"/><polygon class="cls-1" points="132.94 147.94 142.94 147.94 142.94 193.19 147.44 193.19 147.44 147.94 147.44 145.69 147.44 143.44 132.94 143.44 132.94 147.94"/></svg>