<svg width="401" height="329" viewBox="0 0 401 329" fill="none" xmlns="http://www.w3.org/2000/svg">
<rect width="196.985" height="160.804" transform="matrix(-1 0 0 1 401 167.839)" fill="#F1F1F1"/>
<rect width="196.985" height="160.804" transform="matrix(-1 0 0 1 401 0)" fill="#F1F1F1"/>
<rect width="196.985" height="160.804" transform="matrix(-1 0 0 1 197.985 0)" fill="#F1F1F1"/>
<rect width="95.4774" height="77.3869" transform="matrix(-1 0 0 1 197.985 167.839)" fill="#F1F1F1"/>
<rect width="95.4774" height="77.3869" transform="matrix(-1 0 0 1 197.985 251.256)" fill="#F1F1F1"/>
<rect width="95.4774" height="77.3869" transform="matrix(-1 0 0 1 96.4774 251.256)" fill="#F1F1F1"/>
<rect width="95.4774" height="77.3869" transform="matrix(-1 0 0 1 96.4774 167.839)" fill="#F1F1F1"/>
<path d="M98.0953 94V78.376H92.4793V75.028C94.1833 75.004 95.5873 74.572 96.6913 73.732C97.8193 72.892 98.5033 71.86 98.7433 70.636H103.027V94H98.0953Z" fill="#BFBFBF"/>
<path d="M293.239 79.528C293.191 79.36 293.143 79.12 293.095 78.808C293.071 78.496 293.059 78.196 293.059 77.908C293.059 76.876 293.251 75.892 293.635 74.956C294.019 74.02 294.571 73.192 295.291 72.472C296.011 71.752 296.899 71.176 297.955 70.744C299.011 70.312 300.223 70.096 301.591 70.096C302.887 70.096 304.051 70.3 305.083 70.708C306.139 71.116 307.027 71.668 307.747 72.364C308.491 73.036 309.055 73.828 309.439 74.74C309.823 75.652 310.015 76.612 310.015 77.62C310.015 79.132 309.619 80.5 308.827 81.724C308.035 82.924 306.919 83.968 305.479 84.856L300.979 87.592C300.523 87.88 300.115 88.192 299.755 88.528C299.419 88.864 299.155 89.26 298.963 89.716H310.159V94H292.879C292.879 92.968 292.975 91.996 293.167 91.084C293.359 90.148 293.659 89.26 294.067 88.42C294.499 87.58 295.063 86.8 295.759 86.08C296.455 85.336 297.331 84.652 298.387 84.028L302.239 81.724C303.247 81.124 303.955 80.512 304.363 79.888C304.795 79.24 305.011 78.508 305.011 77.692C305.011 76.852 304.711 76.108 304.111 75.46C303.535 74.812 302.659 74.488 301.483 74.488C300.235 74.488 299.299 74.86 298.675 75.604C298.075 76.348 297.775 77.272 297.775 78.376C297.775 78.808 297.835 79.24 297.955 79.672L293.239 79.528Z" fill="#BFBFBF"/>
<path d="M310.375 242.776C310.087 243.04 309.679 243.424 309.151 243.928C308.623 244.408 308.035 245.044 307.387 245.836C306.763 246.604 306.103 247.516 305.407 248.572C304.735 249.604 304.099 250.792 303.499 252.136C302.923 253.456 302.407 254.944 301.951 256.6C301.495 258.232 301.183 260.032 301.015 262H295.867C295.987 260.44 296.203 258.976 296.515 257.608C296.827 256.216 297.199 254.932 297.631 253.756C298.063 252.556 298.531 251.452 299.035 250.444C299.563 249.436 300.091 248.536 300.619 247.744C301.843 245.872 303.187 244.264 304.651 242.92H292.627V238.636H310.375V242.776Z" fill="#BFBFBF"/>
<path d="M44.1291 206.176L50.2491 200.92H40.0251V196.636H56.5491V200.632L50.5011 205.672C51.3891 205.72 52.2411 205.912 53.0571 206.248C53.8731 206.584 54.5931 207.064 55.2171 207.688C55.8411 208.288 56.3331 209.02 56.6931 209.884C57.0771 210.748 57.2691 211.72 57.2691 212.8C57.2691 213.808 57.0651 214.78 56.6571 215.716C56.2491 216.652 55.6611 217.48 54.8931 218.2C54.1251 218.896 53.1891 219.46 52.0851 219.892C50.9811 220.324 49.7211 220.54 48.3051 220.54C46.9371 220.54 45.7131 220.336 44.6331 219.928C43.5531 219.52 42.6291 218.98 41.8611 218.308C41.0931 217.612 40.4811 216.82 40.0251 215.932C39.5931 215.02 39.3411 214.072 39.2691 213.088L44.0571 212.152C44.1051 213.352 44.5131 214.336 45.2811 215.104C46.0731 215.872 47.0811 216.256 48.3051 216.256C49.5531 216.256 50.5251 215.92 51.2211 215.248C51.9171 214.552 52.2651 213.712 52.2651 212.728C52.2651 211.624 51.9051 210.772 51.1851 210.172C50.4891 209.572 49.5771 209.272 48.4491 209.272C47.9451 209.272 47.5251 209.308 47.1891 209.38C46.8771 209.452 46.5891 209.536 46.3251 209.632L44.1291 206.176Z" fill="#BFBFBF"/>
<path d="M140.912 209.812L150.74 196.636H156.86V210.748H160.712V214.996H156.86V220H151.964V214.996H140.912V209.812ZM151.964 201.82L145.304 210.748H151.964V201.82Z" fill="#BFBFBF"/>
<path d="M44.2212 296.404C44.2452 296.956 44.3652 297.472 44.5812 297.952C44.7972 298.408 45.0852 298.816 45.4452 299.176C45.8292 299.536 46.2732 299.824 46.7772 300.04C47.2812 300.232 47.8452 300.328 48.4692 300.328C49.5972 300.328 50.5452 299.992 51.3132 299.32C52.1052 298.624 52.5012 297.688 52.5012 296.512C52.5012 295.84 52.3812 295.264 52.1412 294.784C51.9252 294.28 51.6252 293.872 51.2412 293.56C50.8572 293.224 50.4132 292.984 49.9092 292.84C49.4052 292.672 48.8892 292.588 48.3612 292.588C47.5692 292.588 46.8612 292.744 46.2372 293.056C45.6372 293.368 45.1452 293.74 44.7612 294.172C44.6412 294.124 44.3532 294.028 43.8972 293.884C43.4652 293.716 42.9972 293.548 42.4932 293.38C41.9892 293.212 41.5092 293.056 41.0532 292.912C40.6212 292.768 40.3452 292.672 40.2252 292.624L42.9972 280.636H56.1732V284.92H46.3812L45.2292 290.068C45.7332 289.588 46.3692 289.228 47.1372 288.988C47.9052 288.748 48.6732 288.628 49.4412 288.628C50.6172 288.628 51.6852 288.808 52.6452 289.168C53.6292 289.504 54.4692 290.008 55.1652 290.68C55.8852 291.328 56.4372 292.144 56.8212 293.128C57.2292 294.088 57.4332 295.192 57.4332 296.44C57.4332 297.52 57.2292 298.552 56.8212 299.536C56.4132 300.52 55.8252 301.384 55.0572 302.128C54.2892 302.872 53.3412 303.472 52.2132 303.928C51.1092 304.36 49.8612 304.576 48.4692 304.576C47.1972 304.576 46.0332 304.384 44.9772 304C43.9212 303.592 42.9972 303.064 42.2052 302.416C41.4372 301.744 40.8252 300.976 40.3692 300.112C39.9132 299.248 39.6492 298.36 39.5772 297.448L44.2212 296.404Z" fill="#BFBFBF"/>
<path d="M158.023 285.208C157.519 284.992 156.931 284.8 156.259 284.632C155.611 284.464 154.915 284.38 154.171 284.38C153.187 284.38 152.251 284.524 151.363 284.812C150.475 285.1 149.683 285.532 148.987 286.108C148.315 286.66 147.751 287.356 147.295 288.196C146.863 289.012 146.575 289.972 146.431 291.076C146.863 290.428 147.547 289.84 148.483 289.312C149.443 288.76 150.607 288.484 151.975 288.484C153.175 288.484 154.267 288.664 155.251 289.024C156.235 289.384 157.075 289.912 157.771 290.608C158.491 291.28 159.043 292.108 159.427 293.092C159.835 294.052 160.039 295.132 160.039 296.332C160.039 297.532 159.811 298.636 159.355 299.644C158.899 300.652 158.263 301.516 157.447 302.236C156.631 302.956 155.671 303.52 154.567 303.928C153.487 304.336 152.299 304.54 151.003 304.54C149.731 304.54 148.519 304.312 147.367 303.856C146.215 303.4 145.207 302.728 144.343 301.84C143.479 300.928 142.795 299.812 142.291 298.492C141.787 297.148 141.535 295.588 141.535 293.812C141.535 291.724 141.847 289.84 142.471 288.16C143.095 286.456 143.971 285.016 145.099 283.84C146.251 282.64 147.619 281.716 149.203 281.068C150.811 280.42 152.575 280.096 154.495 280.096C155.575 280.096 156.535 280.204 157.375 280.42C158.239 280.636 158.911 280.888 159.391 281.176L158.023 285.208ZM146.863 296.44C146.863 297.04 146.971 297.58 147.187 298.06C147.427 298.54 147.727 298.96 148.087 299.32C148.471 299.656 148.903 299.92 149.383 300.112C149.887 300.28 150.415 300.364 150.967 300.364C151.543 300.364 152.071 300.28 152.551 300.112C153.055 299.92 153.499 299.656 153.883 299.32C154.267 298.96 154.567 298.54 154.783 298.06C154.999 297.58 155.107 297.04 155.107 296.44C155.107 295.84 154.999 295.3 154.783 294.82C154.567 294.34 154.267 293.932 153.883 293.596C153.499 293.26 153.055 293.008 152.551 292.84C152.071 292.648 151.543 292.552 150.967 292.552C150.415 292.552 149.887 292.648 149.383 292.84C148.879 293.008 148.435 293.26 148.051 293.596C147.691 293.932 147.403 294.34 147.187 294.82C146.971 295.3 146.863 295.84 146.863 296.44Z" fill="#BFBFBF"/>
</svg>
