<?xml version="1.0" encoding="utf-8"?>
<!-- Generator: Adobe Illustrator 24.0.0, SVG Export Plug-In . SVG Version: 6.00 Build 0)  -->
<svg version="1.1" id="Layer_1" xmlns="http://www.w3.org/2000/svg" xmlns:xlink="http://www.w3.org/1999/xlink" x="0px" y="0px"
	 viewBox="0 0 400 334" style="enable-background:new 0 0 400 334;" xml:space="preserve">
<style type="text/css">
	.st0{fill:#A88FD9;}
	.st1{fill:#F5D93D;}
	.st2{fill:#EBC2A6;}
	.st3{fill:#7AE5E5;}
	.st4{fill:#D95496;}
	.st5{fill:#7DEDBB;}
	.st6{fill:#F55252;}
	.st7{fill:#FFFFFF;}
</style>
<g>
	<path class="st0" d="M395.4,5v198.2H208.2V5H395.4 M400.4,0H203.2v208.2h197.2V0L400.4,0z"/>
</g>
<g>
	<path class="st1" d="M192.2,220.3V329H5V220.3H192.2 M197.2,215.3H0V334h197.2V215.3L197.2,215.3z"/>
</g>
<g>
	<g>
		<path class="st2" d="M192.2,5v90.6H5V5H192.2 M197.2,0H0v100.6h197.2V0L197.2,0z"/>
	</g>
</g>
<g>
	<path class="st3" d="M293.8,220.3V329h-85.6V220.3H293.8 M298.8,215.3h-95.6V334h95.6V215.3L298.8,215.3z"/>
</g>
<g>
	<path class="st4" d="M395.4,220.3V329h-85.6V220.3H395.4 M400.4,215.3h-95.6V334h95.6V215.3L400.4,215.3z"/>
</g>
<g>
	<path class="st5" d="M90.6,111.6v91.6H5v-91.6H90.6 M95.6,106.6H0v101.6h95.6V106.6L95.6,106.6z"/>
</g>
<g>
	<path class="st6" d="M192.2,111.6v91.6h-85.6v-91.6H192.2 M197.2,106.6h-95.6v101.6h95.6V106.6L197.2,106.6z"/>
</g>
<path class="st7" d="M98.2,64.1V48.4h-5.6v-3.4c1.7,0,3.1-0.5,4.2-1.3c1.1-0.8,1.8-1.9,2.1-3.1h4.3v23.4H98.2z"/>
<path class="st7" d="M94.3,279.7c0,0.6,0.1,1.1,0.4,1.5c0.2,0.5,0.5,0.9,0.9,1.2c0.4,0.4,0.8,0.6,1.3,0.9c0.5,0.2,1.1,0.3,1.7,0.3
	c1.1,0,2.1-0.3,2.8-1c0.8-0.7,1.2-1.6,1.2-2.8c0-0.7-0.1-1.2-0.4-1.7c-0.2-0.5-0.5-0.9-0.9-1.2c-0.4-0.3-0.8-0.6-1.3-0.7
	c-0.5-0.2-1-0.3-1.5-0.3c-0.8,0-1.5,0.2-2.1,0.5c-0.6,0.3-1.1,0.7-1.5,1.1c-0.1,0-0.4-0.1-0.9-0.3c-0.4-0.2-0.9-0.3-1.4-0.5
	c-0.5-0.2-1-0.3-1.4-0.5c-0.4-0.1-0.7-0.2-0.8-0.3l2.8-12h13.2v4.3h-9.8l-1.2,5.2c0.5-0.5,1.1-0.8,1.9-1.1c0.8-0.2,1.5-0.4,2.3-0.4
	c1.2,0,2.2,0.2,3.2,0.5c1,0.3,1.8,0.8,2.5,1.5c0.7,0.6,1.3,1.5,1.7,2.5c0.4,1,0.6,2.1,0.6,3.3c0,1.1-0.2,2.1-0.6,3.1
	c-0.4,1-1,1.8-1.8,2.6c-0.8,0.7-1.7,1.3-2.8,1.8c-1.1,0.4-2.4,0.6-3.7,0.6c-1.3,0-2.4-0.2-3.5-0.6c-1.1-0.4-2-0.9-2.8-1.6
	c-0.8-0.7-1.4-1.4-1.8-2.3c-0.5-0.9-0.7-1.8-0.8-2.7L94.3,279.7z"/>
<path class="st7" d="M291.7,106.9l9.8-13.2h6.1v14.1h3.9v4.3h-3.9v5h-4.9v-5h-11.1V106.9z M302.8,98.9l-6.7,8.9h6.7V98.9z"/>
<path class="st7" d="M39.3,156.7c0-0.2-0.1-0.4-0.1-0.7c0-0.3,0-0.6,0-0.9c0-1,0.2-2,0.6-3c0.4-0.9,0.9-1.8,1.7-2.5s1.6-1.3,2.7-1.7
	c1.1-0.4,2.3-0.6,3.6-0.6c1.3,0,2.5,0.2,3.5,0.6c1.1,0.4,1.9,1,2.7,1.7c0.7,0.7,1.3,1.5,1.7,2.4c0.4,0.9,0.6,1.9,0.6,2.9
	c0,1.5-0.4,2.9-1.2,4.1c-0.8,1.2-1.9,2.2-3.4,3.1l-4.5,2.7c-0.5,0.3-0.9,0.6-1.2,0.9c-0.3,0.3-0.6,0.7-0.8,1.2h11.2v4.3H38.9
	c0-1,0.1-2,0.3-2.9c0.2-0.9,0.5-1.8,0.9-2.7c0.4-0.8,1-1.6,1.7-2.3c0.7-0.7,1.6-1.4,2.6-2.1l3.9-2.3c1-0.6,1.7-1.2,2.1-1.8
	c0.4-0.6,0.6-1.4,0.6-2.2c0-0.8-0.3-1.6-0.9-2.2c-0.6-0.6-1.5-1-2.6-1c-1.2,0-2.2,0.4-2.8,1.1c-0.6,0.7-0.9,1.7-0.9,2.8
	c0,0.4,0.1,0.9,0.2,1.3L39.3,156.7z"/>
<path class="st7" d="M144.3,157.3l6.1-5.3h-10.2v-4.3h16.5v4l-6.1,5c0.9,0,1.7,0.2,2.6,0.6c0.8,0.3,1.5,0.8,2.2,1.4
	c0.6,0.6,1.1,1.3,1.5,2.2c0.4,0.9,0.6,1.8,0.6,2.9c0,1-0.2,2-0.6,2.9c-0.4,0.9-1,1.8-1.8,2.5c-0.8,0.7-1.7,1.3-2.8,1.7
	c-1.1,0.4-2.4,0.6-3.8,0.6c-1.4,0-2.6-0.2-3.7-0.6c-1.1-0.4-2-0.9-2.8-1.6c-0.8-0.7-1.4-1.5-1.8-2.4c-0.4-0.9-0.7-1.9-0.8-2.8
	l4.8-0.9c0,1.2,0.5,2.2,1.2,3c0.8,0.8,1.8,1.2,3,1.2c1.2,0,2.2-0.3,2.9-1c0.7-0.7,1-1.5,1-2.5c0-1.1-0.4-2-1.1-2.6
	c-0.7-0.6-1.6-0.9-2.7-0.9c-0.5,0-0.9,0-1.3,0.1c-0.3,0.1-0.6,0.2-0.9,0.3L144.3,157.3z"/>
<path class="st7" d="M257.3,269.5c-0.5-0.2-1.1-0.4-1.8-0.6c-0.6-0.2-1.3-0.3-2.1-0.3c-1,0-1.9,0.1-2.8,0.4s-1.7,0.7-2.4,1.3
	c-0.7,0.6-1.2,1.2-1.7,2.1c-0.4,0.8-0.7,1.8-0.9,2.9c0.4-0.6,1.1-1.2,2.1-1.8c1-0.6,2.1-0.8,3.5-0.8c1.2,0,2.3,0.2,3.3,0.5
	c1,0.4,1.8,0.9,2.5,1.6c0.7,0.7,1.3,1.5,1.7,2.5c0.4,1,0.6,2,0.6,3.2s-0.2,2.3-0.7,3.3c-0.5,1-1.1,1.9-1.9,2.6
	c-0.8,0.7-1.8,1.3-2.9,1.7c-1.1,0.4-2.3,0.6-3.6,0.6c-1.3,0-2.5-0.2-3.6-0.7c-1.2-0.5-2.2-1.1-3-2c-0.9-0.9-1.5-2-2.1-3.4
	c-0.5-1.3-0.8-2.9-0.8-4.7c0-2.1,0.3-4,0.9-5.7c0.6-1.7,1.5-3.1,2.6-4.3c1.2-1.2,2.5-2.1,4.1-2.8c1.6-0.6,3.4-1,5.3-1
	c1.1,0,2,0.1,2.9,0.3c0.9,0.2,1.5,0.5,2,0.8L257.3,269.5z M246.1,280.7c0,0.6,0.1,1.1,0.3,1.6c0.2,0.5,0.5,0.9,0.9,1.3
	c0.4,0.3,0.8,0.6,1.3,0.8c0.5,0.2,1,0.3,1.6,0.3c0.6,0,1.1-0.1,1.6-0.3c0.5-0.2,0.9-0.5,1.3-0.8c0.4-0.4,0.7-0.8,0.9-1.3
	c0.2-0.5,0.3-1,0.3-1.6c0-0.6-0.1-1.1-0.3-1.6c-0.2-0.5-0.5-0.9-0.9-1.2s-0.8-0.6-1.3-0.8c-0.5-0.2-1-0.3-1.6-0.3
	c-0.6,0-1.1,0.1-1.6,0.3c-0.5,0.2-0.9,0.4-1.3,0.8c-0.4,0.3-0.6,0.7-0.9,1.2C246.2,279.6,246.1,280.1,246.1,280.7z"/>
<path class="st7" d="M359.7,269c-0.3,0.3-0.7,0.6-1.2,1.2c-0.5,0.5-1.1,1.1-1.8,1.9c-0.6,0.8-1.3,1.7-2,2.7c-0.7,1-1.3,2.2-1.9,3.6
	c-0.6,1.3-1.1,2.8-1.5,4.5c-0.5,1.6-0.8,3.4-0.9,5.4h-5.2c0.1-1.6,0.3-3,0.6-4.4c0.3-1.4,0.7-2.7,1.1-3.9c0.4-1.2,0.9-2.3,1.4-3.3
	c0.5-1,1.1-1.9,1.6-2.7c1.2-1.9,2.6-3.5,4-4.8h-12v-4.3h17.8V269z"/>
</svg>
