<svg width="400" height="286" viewBox="0 0 400 286" fill="none" xmlns="http://www.w3.org/2000/svg">
<rect width="196.985" height="160.804" fill="#F1F1F1"/>
<rect y="166.834" width="196.985" height="118.593" fill="#F1F1F1"/>
<rect x="203.015" y="166.834" width="95.4774" height="118.593" fill="#F1F1F1"/>
<rect x="304.523" y="166.834" width="95.4774" height="118.593" fill="#F1F1F1"/>
<rect x="304.523" width="95.4774" height="160.804" fill="#F1F1F1"/>
<rect x="203.015" width="95.4774" height="77.3869" fill="#F1F1F1"/>
<rect x="203.015" y="83.4171" width="95.4774" height="77.3869" fill="#F1F1F1"/>
<path d="M98.0953 94V78.376H92.4793V75.028C94.1833 75.004 95.5873 74.572 96.6913 73.732C97.8193 72.892 98.5033 71.86 98.7433 70.636H103.027V94H98.0953Z" fill="#BFBFBF"/>
<path d="M94.2212 231.404C94.2452 231.956 94.3652 232.472 94.5812 232.952C94.7972 233.408 95.0852 233.816 95.4452 234.176C95.8292 234.536 96.2732 234.824 96.7772 235.04C97.2812 235.232 97.8452 235.328 98.4692 235.328C99.5972 235.328 100.545 234.992 101.313 234.32C102.105 233.624 102.501 232.688 102.501 231.512C102.501 230.84 102.381 230.264 102.141 229.784C101.925 229.28 101.625 228.872 101.241 228.56C100.857 228.224 100.413 227.984 99.9092 227.84C99.4052 227.672 98.8892 227.588 98.3612 227.588C97.5692 227.588 96.8612 227.744 96.2372 228.056C95.6372 228.368 95.1452 228.74 94.7612 229.172C94.6412 229.124 94.3532 229.028 93.8972 228.884C93.4652 228.716 92.9972 228.548 92.4932 228.38C91.9892 228.212 91.5092 228.056 91.0532 227.912C90.6212 227.768 90.3452 227.672 90.2252 227.624L92.9972 215.636H106.173V219.92H96.3812L95.2292 225.068C95.7332 224.588 96.3692 224.228 97.1372 223.988C97.9052 223.748 98.6732 223.628 99.4412 223.628C100.617 223.628 101.685 223.808 102.645 224.168C103.629 224.504 104.469 225.008 105.165 225.68C105.885 226.328 106.437 227.144 106.821 228.128C107.229 229.088 107.433 230.192 107.433 231.44C107.433 232.52 107.229 233.552 106.821 234.536C106.413 235.52 105.825 236.384 105.057 237.128C104.289 237.872 103.341 238.472 102.213 238.928C101.109 239.36 99.8612 239.576 98.4692 239.576C97.1972 239.576 96.0332 239.384 94.9772 239C93.9212 238.592 92.9972 238.064 92.2052 237.416C91.4372 236.744 90.8252 235.976 90.3692 235.112C89.9132 234.248 89.6492 233.36 89.5772 232.448L94.2212 231.404Z" fill="#BFBFBF"/>
<path d="M342.912 83.812L352.74 70.636H358.86V84.748H362.712V88.996H358.86V94H353.964V88.996H342.912V83.812ZM353.964 75.82L347.304 84.748H353.964V75.82Z" fill="#BFBFBF"/>
<path d="M242.239 37.528C242.191 37.36 242.143 37.12 242.095 36.808C242.071 36.496 242.059 36.196 242.059 35.908C242.059 34.876 242.251 33.892 242.635 32.956C243.019 32.02 243.571 31.192 244.291 30.472C245.011 29.752 245.899 29.176 246.955 28.744C248.011 28.312 249.223 28.096 250.591 28.096C251.887 28.096 253.051 28.3 254.083 28.708C255.139 29.116 256.027 29.668 256.747 30.364C257.491 31.036 258.055 31.828 258.439 32.74C258.823 33.652 259.015 34.612 259.015 35.62C259.015 37.132 258.619 38.5 257.827 39.724C257.035 40.924 255.919 41.968 254.479 42.856L249.979 45.592C249.523 45.88 249.115 46.192 248.755 46.528C248.419 46.864 248.155 47.26 247.963 47.716H259.159V52H241.879C241.879 50.968 241.975 49.996 242.167 49.084C242.359 48.148 242.659 47.26 243.067 46.42C243.499 45.58 244.063 44.8 244.759 44.08C245.455 43.336 246.331 42.652 247.387 42.028L251.239 39.724C252.247 39.124 252.955 38.512 253.363 37.888C253.795 37.24 254.011 36.508 254.011 35.692C254.011 34.852 253.711 34.108 253.111 33.46C252.535 32.812 251.659 32.488 250.483 32.488C249.235 32.488 248.299 32.86 247.675 33.604C247.075 34.348 246.775 35.272 246.775 36.376C246.775 36.808 246.835 37.24 246.955 37.672L242.239 37.528Z" fill="#BFBFBF"/>
<path d="M246.129 121.176L252.249 115.92H242.025V111.636H258.549V115.632L252.501 120.672C253.389 120.72 254.241 120.912 255.057 121.248C255.873 121.584 256.593 122.064 257.217 122.688C257.841 123.288 258.333 124.02 258.693 124.884C259.077 125.748 259.269 126.72 259.269 127.8C259.269 128.808 259.065 129.78 258.657 130.716C258.249 131.652 257.661 132.48 256.893 133.2C256.125 133.896 255.189 134.46 254.085 134.892C252.981 135.324 251.721 135.54 250.305 135.54C248.937 135.54 247.713 135.336 246.633 134.928C245.553 134.52 244.629 133.98 243.861 133.308C243.093 132.612 242.481 131.82 242.025 130.932C241.593 130.02 241.341 129.072 241.269 128.088L246.057 127.152C246.105 128.352 246.513 129.336 247.281 130.104C248.073 130.872 249.081 131.256 250.305 131.256C251.553 131.256 252.525 130.92 253.221 130.248C253.917 129.552 254.265 128.712 254.265 127.728C254.265 126.624 253.905 125.772 253.185 125.172C252.489 124.572 251.577 124.272 250.449 124.272C249.945 124.272 249.525 124.308 249.189 124.38C248.877 124.452 248.589 124.536 248.325 124.632L246.129 121.176Z" fill="#BFBFBF"/>
<path d="M259.023 220.208C258.519 219.992 257.931 219.8 257.259 219.632C256.611 219.464 255.915 219.38 255.171 219.38C254.187 219.38 253.251 219.524 252.363 219.812C251.475 220.1 250.683 220.532 249.987 221.108C249.315 221.66 248.751 222.356 248.295 223.196C247.863 224.012 247.575 224.972 247.431 226.076C247.863 225.428 248.547 224.84 249.483 224.312C250.443 223.76 251.607 223.484 252.975 223.484C254.175 223.484 255.267 223.664 256.251 224.024C257.235 224.384 258.075 224.912 258.771 225.608C259.491 226.28 260.043 227.108 260.427 228.092C260.835 229.052 261.039 230.132 261.039 231.332C261.039 232.532 260.811 233.636 260.355 234.644C259.899 235.652 259.263 236.516 258.447 237.236C257.631 237.956 256.671 238.52 255.567 238.928C254.487 239.336 253.299 239.54 252.003 239.54C250.731 239.54 249.519 239.312 248.367 238.856C247.215 238.4 246.207 237.728 245.343 236.84C244.479 235.928 243.795 234.812 243.291 233.492C242.787 232.148 242.535 230.588 242.535 228.812C242.535 226.724 242.847 224.84 243.471 223.16C244.095 221.456 244.971 220.016 246.099 218.84C247.251 217.64 248.619 216.716 250.203 216.068C251.811 215.42 253.575 215.096 255.495 215.096C256.575 215.096 257.535 215.204 258.375 215.42C259.239 215.636 259.911 215.888 260.391 216.176L259.023 220.208ZM247.863 231.44C247.863 232.04 247.971 232.58 248.187 233.06C248.427 233.54 248.727 233.96 249.087 234.32C249.471 234.656 249.903 234.92 250.383 235.112C250.887 235.28 251.415 235.364 251.967 235.364C252.543 235.364 253.071 235.28 253.551 235.112C254.055 234.92 254.499 234.656 254.883 234.32C255.267 233.96 255.567 233.54 255.783 233.06C255.999 232.58 256.107 232.04 256.107 231.44C256.107 230.84 255.999 230.3 255.783 229.82C255.567 229.34 255.267 228.932 254.883 228.596C254.499 228.26 254.055 228.008 253.551 227.84C253.071 227.648 252.543 227.552 251.967 227.552C251.415 227.552 250.887 227.648 250.383 227.84C249.879 228.008 249.435 228.26 249.051 228.596C248.691 228.932 248.403 229.34 248.187 229.82C247.971 230.3 247.863 230.84 247.863 231.44Z" fill="#BFBFBF"/>
<path d="M361.375 219.776C361.087 220.04 360.679 220.424 360.151 220.928C359.623 221.408 359.035 222.044 358.387 222.836C357.763 223.604 357.103 224.516 356.407 225.572C355.735 226.604 355.099 227.792 354.499 229.136C353.923 230.456 353.407 231.944 352.951 233.6C352.495 235.232 352.183 237.032 352.015 239H346.867C346.987 237.44 347.203 235.976 347.515 234.608C347.827 233.216 348.199 231.932 348.631 230.756C349.063 229.556 349.531 228.452 350.035 227.444C350.563 226.436 351.091 225.536 351.619 224.744C352.843 222.872 354.187 221.264 355.651 219.92H343.627V215.636H361.375V219.776Z" fill="#BFBFBF"/>
</svg>
