<?xml version="1.0" encoding="utf-8"?>
<!-- Generator: Adobe Illustrator 24.0.0, SVG Export Plug-In . SVG Version: 6.00 Build 0)  -->
<svg version="1.1" id="Layer_1" xmlns="http://www.w3.org/2000/svg" xmlns:xlink="http://www.w3.org/1999/xlink" x="0px" y="0px"
	 viewBox="0 0 401 329" style="enable-background:new 0 0 401 329;" xml:space="preserve">
<style type="text/css">
	.st0{fill:#D95496;}
	.st1{fill:#7DEDBB;}
	.st2{fill:#EBC2A6;}
	.st3{fill:#A88FD9;}
	.st4{fill:#7AE5E5;}
	.st5{fill:#F5D93D;}
	.st6{fill:#F55252;}
	.st7{fill:#FFFFFF;}
</style>
<g>
	<g>
		<path class="st0" d="M396,172.8v150.8H209V172.8H396 M401,167.8H204v160.8h197V167.8L401,167.8z"/>
	</g>
</g>
<g>
	<g>
		<path class="st1" d="M396,5v150.8H209V5H396 M401,0H204v160.8h197V0L401,0z"/>
	</g>
</g>
<g>
	<g>
		<path class="st2" d="M193,5v150.8H6V5H193 M198,0H1v160.8h197V0L198,0z"/>
	</g>
</g>
<g>
	<g>
		<path class="st3" d="M193,172.8v67.4h-85.5v-67.4H193 M198,167.8h-95.5v77.4H198V167.8L198,167.8z"/>
	</g>
</g>
<g>
	<g>
		<path class="st4" d="M193,256.3v67.4h-85.5v-67.4H193 M198,251.3h-95.5v77.4H198V251.3L198,251.3z"/>
	</g>
</g>
<g>
	<g>
		<path class="st5" d="M91.5,256.3v67.4H6v-67.4H91.5 M96.5,251.3H1v77.4h95.5V251.3L96.5,251.3z"/>
	</g>
</g>
<g>
	<g>
		<path class="st6" d="M91.5,172.8v67.4H6v-67.4H91.5 M96.5,167.8H1v77.4h95.5V167.8L96.5,167.8z"/>
	</g>
</g>
<path class="st7" d="M98.1,94V78.4h-5.6V75c1.7,0,3.1-0.5,4.2-1.3c1.1-0.8,1.8-1.9,2.1-3.1h4.3V94H98.1z"/>
<path class="st7" d="M293.2,79.5c0-0.2-0.1-0.4-0.1-0.7c0-0.3,0-0.6,0-0.9c0-1,0.2-2,0.6-3c0.4-0.9,0.9-1.8,1.7-2.5
	c0.7-0.7,1.6-1.3,2.7-1.7c1.1-0.4,2.3-0.6,3.6-0.6c1.3,0,2.5,0.2,3.5,0.6c1.1,0.4,1.9,1,2.7,1.7c0.7,0.7,1.3,1.5,1.7,2.4
	c0.4,0.9,0.6,1.9,0.6,2.9c0,1.5-0.4,2.9-1.2,4.1c-0.8,1.2-1.9,2.2-3.3,3.1l-4.5,2.7c-0.5,0.3-0.9,0.6-1.2,0.9
	c-0.3,0.3-0.6,0.7-0.8,1.2h11.2V94h-17.3c0-1,0.1-2,0.3-2.9c0.2-0.9,0.5-1.8,0.9-2.7c0.4-0.8,1-1.6,1.7-2.3c0.7-0.7,1.6-1.4,2.6-2.1
	l3.9-2.3c1-0.6,1.7-1.2,2.1-1.8c0.4-0.6,0.6-1.4,0.6-2.2c0-0.8-0.3-1.6-0.9-2.2c-0.6-0.6-1.5-1-2.6-1c-1.2,0-2.2,0.4-2.8,1.1
	c-0.6,0.7-0.9,1.7-0.9,2.8c0,0.4,0.1,0.9,0.2,1.3L293.2,79.5z"/>
<path class="st7" d="M310.4,242.8c-0.3,0.3-0.7,0.6-1.2,1.2c-0.5,0.5-1.1,1.1-1.8,1.9c-0.6,0.8-1.3,1.7-2,2.7
	c-0.7,1-1.3,2.2-1.9,3.6c-0.6,1.3-1.1,2.8-1.5,4.5c-0.5,1.6-0.8,3.4-0.9,5.4h-5.1c0.1-1.6,0.3-3,0.6-4.4c0.3-1.4,0.7-2.7,1.1-3.9
	c0.4-1.2,0.9-2.3,1.4-3.3c0.5-1,1.1-1.9,1.6-2.7c1.2-1.9,2.6-3.5,4-4.8h-12v-4.3h17.7V242.8z"/>
<path class="st7" d="M44.1,206.2l6.1-5.3H40v-4.3h16.5v4l-6,5c0.9,0,1.7,0.2,2.6,0.6c0.8,0.3,1.5,0.8,2.2,1.4
	c0.6,0.6,1.1,1.3,1.5,2.2c0.4,0.9,0.6,1.8,0.6,2.9c0,1-0.2,2-0.6,2.9c-0.4,0.9-1,1.8-1.8,2.5c-0.8,0.7-1.7,1.3-2.8,1.7
	c-1.1,0.4-2.4,0.6-3.8,0.6c-1.4,0-2.6-0.2-3.7-0.6c-1.1-0.4-2-0.9-2.8-1.6c-0.8-0.7-1.4-1.5-1.8-2.4c-0.4-0.9-0.7-1.9-0.8-2.8
	l4.8-0.9c0,1.2,0.5,2.2,1.2,3c0.8,0.8,1.8,1.2,3,1.2c1.2,0,2.2-0.3,2.9-1c0.7-0.7,1-1.5,1-2.5c0-1.1-0.4-2-1.1-2.6
	c-0.7-0.6-1.6-0.9-2.7-0.9c-0.5,0-0.9,0-1.3,0.1c-0.3,0.1-0.6,0.2-0.9,0.3L44.1,206.2z"/>
<path class="st7" d="M140.9,209.8l9.8-13.2h6.1v14.1h3.9v4.2h-3.9v5H152v-5h-11.1V209.8z M152,201.8l-6.7,8.9h6.7V201.8z"/>
<path class="st7" d="M44.2,296.4c0,0.6,0.1,1.1,0.4,1.5c0.2,0.5,0.5,0.9,0.9,1.2c0.4,0.4,0.8,0.6,1.3,0.9c0.5,0.2,1.1,0.3,1.7,0.3
	c1.1,0,2.1-0.3,2.8-1c0.8-0.7,1.2-1.6,1.2-2.8c0-0.7-0.1-1.2-0.4-1.7c-0.2-0.5-0.5-0.9-0.9-1.2c-0.4-0.3-0.8-0.6-1.3-0.7
	c-0.5-0.2-1-0.3-1.5-0.3c-0.8,0-1.5,0.2-2.1,0.5c-0.6,0.3-1.1,0.7-1.5,1.1c-0.1,0-0.4-0.1-0.9-0.3c-0.4-0.2-0.9-0.3-1.4-0.5
	c-0.5-0.2-1-0.3-1.4-0.5c-0.4-0.1-0.7-0.2-0.8-0.3l2.8-12h13.2v4.3h-9.8l-1.2,5.1c0.5-0.5,1.1-0.8,1.9-1.1c0.8-0.2,1.5-0.4,2.3-0.4
	c1.2,0,2.2,0.2,3.2,0.5c1,0.3,1.8,0.8,2.5,1.5c0.7,0.6,1.3,1.5,1.7,2.4c0.4,1,0.6,2.1,0.6,3.3c0,1.1-0.2,2.1-0.6,3.1
	c-0.4,1-1,1.8-1.8,2.6c-0.8,0.7-1.7,1.3-2.8,1.8c-1.1,0.4-2.4,0.6-3.7,0.6c-1.3,0-2.4-0.2-3.5-0.6c-1.1-0.4-2-0.9-2.8-1.6
	c-0.8-0.7-1.4-1.4-1.8-2.3c-0.5-0.9-0.7-1.8-0.8-2.7L44.2,296.4z"/>
<path class="st7" d="M158,285.2c-0.5-0.2-1.1-0.4-1.8-0.6c-0.6-0.2-1.3-0.3-2.1-0.3c-1,0-1.9,0.1-2.8,0.4c-0.9,0.3-1.7,0.7-2.4,1.3
	c-0.7,0.6-1.2,1.2-1.7,2.1c-0.4,0.8-0.7,1.8-0.9,2.9c0.4-0.6,1.1-1.2,2.1-1.8c1-0.6,2.1-0.8,3.5-0.8c1.2,0,2.3,0.2,3.3,0.5
	c1,0.4,1.8,0.9,2.5,1.6c0.7,0.7,1.3,1.5,1.7,2.5c0.4,1,0.6,2,0.6,3.2s-0.2,2.3-0.7,3.3c-0.5,1-1.1,1.9-1.9,2.6
	c-0.8,0.7-1.8,1.3-2.9,1.7c-1.1,0.4-2.3,0.6-3.6,0.6c-1.3,0-2.5-0.2-3.6-0.7c-1.2-0.5-2.2-1.1-3-2c-0.9-0.9-1.5-2-2.1-3.3
	c-0.5-1.3-0.8-2.9-0.8-4.7c0-2.1,0.3-4,0.9-5.7c0.6-1.7,1.5-3.1,2.6-4.3c1.2-1.2,2.5-2.1,4.1-2.8c1.6-0.6,3.4-1,5.3-1
	c1.1,0,2,0.1,2.9,0.3c0.9,0.2,1.5,0.5,2,0.8L158,285.2z M146.9,296.4c0,0.6,0.1,1.1,0.3,1.6c0.2,0.5,0.5,0.9,0.9,1.3
	c0.4,0.3,0.8,0.6,1.3,0.8c0.5,0.2,1,0.3,1.6,0.3c0.6,0,1.1-0.1,1.6-0.3c0.5-0.2,0.9-0.5,1.3-0.8c0.4-0.4,0.7-0.8,0.9-1.3
	c0.2-0.5,0.3-1,0.3-1.6s-0.1-1.1-0.3-1.6c-0.2-0.5-0.5-0.9-0.9-1.2s-0.8-0.6-1.3-0.8c-0.5-0.2-1-0.3-1.6-0.3c-0.6,0-1.1,0.1-1.6,0.3
	c-0.5,0.2-0.9,0.4-1.3,0.8c-0.4,0.3-0.6,0.7-0.9,1.2C147,295.3,146.9,295.8,146.9,296.4z"/>
</svg>
