<?xml version="1.0" encoding="utf-8"?>
<!-- Generator: Adobe Illustrator 24.0.0, SVG Export Plug-In . SVG Version: 6.00 Build 0)  -->
<svg version="1.1" id="Layer_1" xmlns="http://www.w3.org/2000/svg" xmlns:xlink="http://www.w3.org/1999/xlink" x="0px" y="0px"
	 viewBox="0 0 400 286" style="enable-background:new 0 0 400 286;" xml:space="preserve">
<style type="text/css">
	.st0{fill:#EBC2A6;}
	.st1{fill:#F5D93D;}
	.st2{fill:#7AE5E5;}
	.st3{fill:#D95496;}
	.st4{fill:#A88FD9;}
	.st5{fill:#7DEDBB;}
	.st6{fill:#F55252;}
	.st7{fill:#FFFFFF;}
</style>
<g>
	<g>
		<g>
			<path class="st0" d="M192,5v150.8H5V5H192 M197,0H0v160.8h197V0L197,0z"/>
		</g>
	</g>
	<g>
		<g>
			<path class="st1" d="M192,171.8v108.6H5V171.8H192 M197,166.8H0v118.6h197V166.8L197,166.8z"/>
		</g>
	</g>
	<g>
		<g>
			<path class="st2" d="M293.5,171.8v108.6H208V171.8H293.5 M298.5,166.8H203v118.6h95.5V166.8L298.5,166.8z"/>
		</g>
	</g>
	<g>
		<g>
			<path class="st3" d="M395,171.8v108.6h-85.5V171.8H395 M400,166.8h-95.5v118.6H400V166.8L400,166.8z"/>
		</g>
	</g>
	<g>
		<g>
			<path class="st4" d="M395,5v150.8h-85.5V5H395 M400,0h-95.5v160.8H400V0L400,0z"/>
		</g>
	</g>
	<g>
		<g>
			<path class="st5" d="M293.5,5v67.4H208V5H293.5 M298.5,0H203v77.4h95.5V0L298.5,0z"/>
		</g>
	</g>
	<g>
		<g>
			<path class="st6" d="M293.5,88.4v67.4H208V88.4H293.5 M298.5,83.4H203v77.4h95.5V83.4L298.5,83.4z"/>
		</g>
	</g>
</g>
<path class="st7" d="M98.1,94V78.4h-5.6V75c1.7,0,3.1-0.5,4.2-1.3c1.1-0.8,1.8-1.9,2.1-3.1h4.3V94H98.1z"/>
<path class="st7" d="M94.2,231.4c0,0.6,0.1,1.1,0.4,1.5c0.2,0.5,0.5,0.9,0.9,1.2c0.4,0.4,0.8,0.6,1.3,0.9c0.5,0.2,1.1,0.3,1.7,0.3
	c1.1,0,2.1-0.3,2.8-1c0.8-0.7,1.2-1.6,1.2-2.8c0-0.7-0.1-1.2-0.4-1.7c-0.2-0.5-0.5-0.9-0.9-1.2c-0.4-0.3-0.8-0.6-1.3-0.7
	c-0.5-0.2-1-0.3-1.5-0.3c-0.8,0-1.5,0.2-2.1,0.5c-0.6,0.3-1.1,0.7-1.5,1.1c-0.1,0-0.4-0.1-0.9-0.3c-0.4-0.2-0.9-0.3-1.4-0.5
	c-0.5-0.2-1-0.3-1.4-0.5c-0.4-0.1-0.7-0.2-0.8-0.3l2.8-12h13.2v4.3h-9.8l-1.2,5.1c0.5-0.5,1.1-0.8,1.9-1.1c0.8-0.2,1.5-0.4,2.3-0.4
	c1.2,0,2.2,0.2,3.2,0.5c1,0.3,1.8,0.8,2.5,1.5c0.7,0.6,1.3,1.5,1.7,2.4c0.4,1,0.6,2.1,0.6,3.3c0,1.1-0.2,2.1-0.6,3.1
	c-0.4,1-1,1.8-1.8,2.6c-0.8,0.7-1.7,1.3-2.8,1.8c-1.1,0.4-2.4,0.6-3.7,0.6c-1.3,0-2.4-0.2-3.5-0.6c-1.1-0.4-2-0.9-2.8-1.6
	c-0.8-0.7-1.4-1.4-1.8-2.3s-0.7-1.8-0.8-2.7L94.2,231.4z"/>
<path class="st7" d="M342.9,83.8l9.8-13.2h6.1v14.1h3.9V89h-3.9v5H354v-5h-11.1V83.8z M354,75.8l-6.7,8.9h6.7V75.8z"/>
<path class="st7" d="M242.2,37.5c0-0.2-0.1-0.4-0.1-0.7c0-0.3,0-0.6,0-0.9c0-1,0.2-2,0.6-3c0.4-0.9,0.9-1.8,1.7-2.5s1.6-1.3,2.7-1.7
	c1.1-0.4,2.3-0.6,3.6-0.6c1.3,0,2.5,0.2,3.5,0.6c1.1,0.4,1.9,1,2.7,1.7c0.7,0.7,1.3,1.5,1.7,2.4c0.4,0.9,0.6,1.9,0.6,2.9
	c0,1.5-0.4,2.9-1.2,4.1c-0.8,1.2-1.9,2.2-3.3,3.1l-4.5,2.7c-0.5,0.3-0.9,0.6-1.2,0.9c-0.3,0.3-0.6,0.7-0.8,1.2h11.2V52h-17.3
	c0-1,0.1-2,0.3-2.9c0.2-0.9,0.5-1.8,0.9-2.7c0.4-0.8,1-1.6,1.7-2.3c0.7-0.7,1.6-1.4,2.6-2.1l3.9-2.3c1-0.6,1.7-1.2,2.1-1.8
	c0.4-0.6,0.6-1.4,0.6-2.2c0-0.8-0.3-1.6-0.9-2.2c-0.6-0.6-1.5-1-2.6-1c-1.2,0-2.2,0.4-2.8,1.1c-0.6,0.7-0.9,1.7-0.9,2.8
	c0,0.4,0.1,0.9,0.2,1.3L242.2,37.5z"/>
<path class="st7" d="M246.1,121.2l6.1-5.3H242v-4.3h16.5v4l-6,5c0.9,0,1.7,0.2,2.6,0.6c0.8,0.3,1.5,0.8,2.2,1.4
	c0.6,0.6,1.1,1.3,1.5,2.2c0.4,0.9,0.6,1.8,0.6,2.9c0,1-0.2,2-0.6,2.9c-0.4,0.9-1,1.8-1.8,2.5c-0.8,0.7-1.7,1.3-2.8,1.7
	c-1.1,0.4-2.4,0.6-3.8,0.6c-1.4,0-2.6-0.2-3.7-0.6c-1.1-0.4-2-0.9-2.8-1.6c-0.8-0.7-1.4-1.5-1.8-2.4c-0.4-0.9-0.7-1.9-0.8-2.8
	l4.8-0.9c0,1.2,0.5,2.2,1.2,3c0.8,0.8,1.8,1.2,3,1.2c1.2,0,2.2-0.3,2.9-1c0.7-0.7,1-1.5,1-2.5c0-1.1-0.4-2-1.1-2.6
	c-0.7-0.6-1.6-0.9-2.7-0.9c-0.5,0-0.9,0-1.3,0.1c-0.3,0.1-0.6,0.2-0.9,0.3L246.1,121.2z"/>
<path class="st7" d="M259,220.2c-0.5-0.2-1.1-0.4-1.8-0.6c-0.6-0.2-1.3-0.3-2.1-0.3c-1,0-1.9,0.1-2.8,0.4c-0.9,0.3-1.7,0.7-2.4,1.3
	c-0.7,0.6-1.2,1.2-1.7,2.1c-0.4,0.8-0.7,1.8-0.9,2.9c0.4-0.6,1.1-1.2,2.1-1.8c1-0.6,2.1-0.8,3.5-0.8c1.2,0,2.3,0.2,3.3,0.5
	c1,0.4,1.8,0.9,2.5,1.6c0.7,0.7,1.3,1.5,1.7,2.5c0.4,1,0.6,2,0.6,3.2s-0.2,2.3-0.7,3.3c-0.5,1-1.1,1.9-1.9,2.6
	c-0.8,0.7-1.8,1.3-2.9,1.7c-1.1,0.4-2.3,0.6-3.6,0.6c-1.3,0-2.5-0.2-3.6-0.7c-1.2-0.5-2.2-1.1-3-2c-0.9-0.9-1.5-2-2.1-3.3
	c-0.5-1.3-0.8-2.9-0.8-4.7c0-2.1,0.3-4,0.9-5.7c0.6-1.7,1.5-3.1,2.6-4.3c1.2-1.2,2.5-2.1,4.1-2.8c1.6-0.6,3.4-1,5.3-1
	c1.1,0,2,0.1,2.9,0.3c0.9,0.2,1.5,0.5,2,0.8L259,220.2z M247.9,231.4c0,0.6,0.1,1.1,0.3,1.6c0.2,0.5,0.5,0.9,0.9,1.3
	c0.4,0.3,0.8,0.6,1.3,0.8c0.5,0.2,1,0.3,1.6,0.3c0.6,0,1.1-0.1,1.6-0.3c0.5-0.2,0.9-0.5,1.3-0.8c0.4-0.4,0.7-0.8,0.9-1.3
	c0.2-0.5,0.3-1,0.3-1.6c0-0.6-0.1-1.1-0.3-1.6c-0.2-0.5-0.5-0.9-0.9-1.2c-0.4-0.3-0.8-0.6-1.3-0.8c-0.5-0.2-1-0.3-1.6-0.3
	c-0.6,0-1.1,0.1-1.6,0.3c-0.5,0.2-0.9,0.4-1.3,0.8c-0.4,0.3-0.6,0.7-0.9,1.2C248,230.3,247.9,230.8,247.9,231.4z"/>
<path class="st7" d="M361.4,219.8c-0.3,0.3-0.7,0.6-1.2,1.2c-0.5,0.5-1.1,1.1-1.8,1.9c-0.6,0.8-1.3,1.7-2,2.7
	c-0.7,1-1.3,2.2-1.9,3.6c-0.6,1.3-1.1,2.8-1.5,4.5c-0.5,1.6-0.8,3.4-0.9,5.4h-5.1c0.1-1.6,0.3-3,0.6-4.4c0.3-1.4,0.7-2.7,1.1-3.9
	c0.4-1.2,0.9-2.3,1.4-3.3c0.5-1,1.1-1.9,1.6-2.7c1.2-1.9,2.6-3.5,4-4.8h-12v-4.3h17.7V219.8z"/>
</svg>
