<svg width="400" height="334" viewBox="0 0 400 334" fill="none" xmlns="http://www.w3.org/2000/svg">
<rect x="203.015" width="196.985" height="208.04" fill="#F1F1F1"/>
<rect y="215.075" width="196.985" height="118.593" fill="#F1F1F1"/>
<rect width="196.985" height="100.503" fill="#F1F1F1"/>
<rect x="203.015" y="215.075" width="95.4774" height="118.593" fill="#F1F1F1"/>
<rect x="304.523" y="215.075" width="95.4774" height="118.593" fill="#F1F1F1"/>
<rect y="106.533" width="95.4774" height="101.508" fill="#F1F1F1"/>
<rect x="101.508" y="106.533" width="95.4774" height="101.508" fill="#F1F1F1"/>
<path d="M98.0953 64V48.376H92.4793V45.028C94.1833 45.004 95.5873 44.572 96.6913 43.732C97.8193 42.892 98.5033 41.86 98.7433 40.636H103.027V64H98.0953Z" fill="#BFBFBF"/>
<path d="M94.2212 279.404C94.2452 279.956 94.3652 280.472 94.5812 280.952C94.7972 281.408 95.0852 281.816 95.4452 282.176C95.8292 282.536 96.2732 282.824 96.7772 283.04C97.2812 283.232 97.8452 283.328 98.4692 283.328C99.5972 283.328 100.545 282.992 101.313 282.32C102.105 281.624 102.501 280.688 102.501 279.512C102.501 278.84 102.381 278.264 102.141 277.784C101.925 277.28 101.625 276.872 101.241 276.56C100.857 276.224 100.413 275.984 99.9092 275.84C99.4052 275.672 98.8892 275.588 98.3612 275.588C97.5692 275.588 96.8612 275.744 96.2372 276.056C95.6372 276.368 95.1452 276.74 94.7612 277.172C94.6412 277.124 94.3532 277.028 93.8972 276.884C93.4652 276.716 92.9972 276.548 92.4932 276.38C91.9892 276.212 91.5092 276.056 91.0532 275.912C90.6212 275.768 90.3452 275.672 90.2252 275.624L92.9972 263.636H106.173V267.92H96.3812L95.2292 273.068C95.7332 272.588 96.3692 272.228 97.1372 271.988C97.9052 271.748 98.6732 271.628 99.4412 271.628C100.617 271.628 101.685 271.808 102.645 272.168C103.629 272.504 104.469 273.008 105.165 273.68C105.885 274.328 106.437 275.144 106.821 276.128C107.229 277.088 107.433 278.192 107.433 279.44C107.433 280.52 107.229 281.552 106.821 282.536C106.413 283.52 105.825 284.384 105.057 285.128C104.289 285.872 103.341 286.472 102.213 286.928C101.109 287.36 99.8612 287.576 98.4692 287.576C97.1972 287.576 96.0332 287.384 94.9772 287C93.9212 286.592 92.9972 286.064 92.2052 285.416C91.4372 284.744 90.8252 283.976 90.3692 283.112C89.9132 282.248 89.6492 281.36 89.5772 280.448L94.2212 279.404Z" fill="#BFBFBF"/>
<path d="M291.412 106.812L301.24 93.636H307.36V107.748H311.212V111.996H307.36V117H302.464V111.996H291.412V106.812ZM302.464 98.82L295.804 107.748H302.464V98.82Z" fill="#BFBFBF"/>
<path d="M39.2386 156.528C39.1906 156.36 39.1426 156.12 39.0946 155.808C39.0706 155.496 39.0586 155.196 39.0586 154.908C39.0586 153.876 39.2506 152.892 39.6346 151.956C40.0186 151.02 40.5706 150.192 41.2906 149.472C42.0106 148.752 42.8986 148.176 43.9546 147.744C45.0106 147.312 46.2226 147.096 47.5906 147.096C48.8866 147.096 50.0506 147.3 51.0826 147.708C52.1386 148.116 53.0266 148.668 53.7466 149.364C54.4906 150.036 55.0546 150.828 55.4386 151.74C55.8226 152.652 56.0146 153.612 56.0146 154.62C56.0146 156.132 55.6186 157.5 54.8266 158.724C54.0346 159.924 52.9186 160.968 51.4786 161.856L46.9786 164.592C46.5226 164.88 46.1146 165.192 45.7546 165.528C45.4186 165.864 45.1546 166.26 44.9626 166.716H56.1586V171H38.8786C38.8786 169.968 38.9746 168.996 39.1666 168.084C39.3586 167.148 39.6586 166.26 40.0666 165.42C40.4986 164.58 41.0626 163.8 41.7586 163.08C42.4546 162.336 43.3306 161.652 44.3866 161.028L48.2386 158.724C49.2466 158.124 49.9546 157.512 50.3626 156.888C50.7946 156.24 51.0106 155.508 51.0106 154.692C51.0106 153.852 50.7106 153.108 50.1106 152.46C49.5346 151.812 48.6586 151.488 47.4826 151.488C46.2346 151.488 45.2986 151.86 44.6746 152.604C44.0746 153.348 43.7746 154.272 43.7746 155.376C43.7746 155.808 43.8346 156.24 43.9546 156.672L39.2386 156.528Z" fill="#BFBFBF"/>
<path d="M144.129 157.176L150.249 151.92H140.025V147.636H156.549V151.632L150.501 156.672C151.389 156.72 152.241 156.912 153.057 157.248C153.873 157.584 154.593 158.064 155.217 158.688C155.841 159.288 156.333 160.02 156.693 160.884C157.077 161.748 157.269 162.72 157.269 163.8C157.269 164.808 157.065 165.78 156.657 166.716C156.249 167.652 155.661 168.48 154.893 169.2C154.125 169.896 153.189 170.46 152.085 170.892C150.981 171.324 149.721 171.54 148.305 171.54C146.937 171.54 145.713 171.336 144.633 170.928C143.553 170.52 142.629 169.98 141.861 169.308C141.093 168.612 140.481 167.82 140.025 166.932C139.593 166.02 139.341 165.072 139.269 164.088L144.057 163.152C144.105 164.352 144.513 165.336 145.281 166.104C146.073 166.872 147.081 167.256 148.305 167.256C149.553 167.256 150.525 166.92 151.221 166.248C151.917 165.552 152.265 164.712 152.265 163.728C152.265 162.624 151.905 161.772 151.185 161.172C150.489 160.572 149.577 160.272 148.449 160.272C147.945 160.272 147.525 160.308 147.189 160.38C146.877 160.452 146.589 160.536 146.325 160.632L144.129 157.176Z" fill="#BFBFBF"/>
<path d="M257.023 269.208C256.519 268.992 255.931 268.8 255.259 268.632C254.611 268.464 253.915 268.38 253.171 268.38C252.187 268.38 251.251 268.524 250.363 268.812C249.475 269.1 248.683 269.532 247.987 270.108C247.315 270.66 246.751 271.356 246.295 272.196C245.863 273.012 245.575 273.972 245.431 275.076C245.863 274.428 246.547 273.84 247.483 273.312C248.443 272.76 249.607 272.484 250.975 272.484C252.175 272.484 253.267 272.664 254.251 273.024C255.235 273.384 256.075 273.912 256.771 274.608C257.491 275.28 258.043 276.108 258.427 277.092C258.835 278.052 259.039 279.132 259.039 280.332C259.039 281.532 258.811 282.636 258.355 283.644C257.899 284.652 257.263 285.516 256.447 286.236C255.631 286.956 254.671 287.52 253.567 287.928C252.487 288.336 251.299 288.54 250.003 288.54C248.731 288.54 247.519 288.312 246.367 287.856C245.215 287.4 244.207 286.728 243.343 285.84C242.479 284.928 241.795 283.812 241.291 282.492C240.787 281.148 240.535 279.588 240.535 277.812C240.535 275.724 240.847 273.84 241.471 272.16C242.095 270.456 242.971 269.016 244.099 267.84C245.251 266.64 246.619 265.716 248.203 265.068C249.811 264.42 251.575 264.096 253.495 264.096C254.575 264.096 255.535 264.204 256.375 264.42C257.239 264.636 257.911 264.888 258.391 265.176L257.023 269.208ZM245.863 280.44C245.863 281.04 245.971 281.58 246.187 282.06C246.427 282.54 246.727 282.96 247.087 283.32C247.471 283.656 247.903 283.92 248.383 284.112C248.887 284.28 249.415 284.364 249.967 284.364C250.543 284.364 251.071 284.28 251.551 284.112C252.055 283.92 252.499 283.656 252.883 283.32C253.267 282.96 253.567 282.54 253.783 282.06C253.999 281.58 254.107 281.04 254.107 280.44C254.107 279.84 253.999 279.3 253.783 278.82C253.567 278.34 253.267 277.932 252.883 277.596C252.499 277.26 252.055 277.008 251.551 276.84C251.071 276.648 250.543 276.552 249.967 276.552C249.415 276.552 248.887 276.648 248.383 276.84C247.879 277.008 247.435 277.26 247.051 277.596C246.691 277.932 246.403 278.34 246.187 278.82C245.971 279.3 245.863 279.84 245.863 280.44Z" fill="#BFBFBF"/>
<path d="M359.375 268.776C359.087 269.04 358.679 269.424 358.151 269.928C357.623 270.408 357.035 271.044 356.387 271.836C355.763 272.604 355.103 273.516 354.407 274.572C353.735 275.604 353.099 276.792 352.499 278.136C351.923 279.456 351.407 280.944 350.951 282.6C350.495 284.232 350.183 286.032 350.015 288H344.867C344.987 286.44 345.203 284.976 345.515 283.608C345.827 282.216 346.199 280.932 346.631 279.756C347.063 278.556 347.531 277.452 348.035 276.444C348.563 275.436 349.091 274.536 349.619 273.744C350.843 271.872 352.187 270.264 353.651 268.92H341.627V264.636H359.375V268.776Z" fill="#BFBFBF"/>
</svg>
