<svg width="133" height="103" viewBox="0 0 133 103" fill="none" xmlns="http://www.w3.org/2000/svg">
<path d="M9.84329 40.6036L18.6668 40.6204L19.4161 43.5058H19.6697C22.008 41.3767 25.0956 39.8808 28.2509 39.8864C35.6883 39.8976 40.4662 46.1784 40.4493 55.832C40.4324 66.6118 33.9867 72.7469 27.3043 72.7357C24.6561 72.7301 22.2615 71.5983 20.25 69.5869L20.6219 74.3493L20.605 83L9.7644 82.9832L9.84329 40.6036ZM29.3608 55.9328C29.3721 50.7951 27.8621 48.6604 24.9604 48.6548C23.3208 48.6492 22.0587 49.2767 20.667 50.9015L20.6444 62.4377C21.9009 63.5695 23.287 63.9449 24.6787 63.9505C27.2029 63.9561 29.3496 61.9503 29.3608 55.9328Z" fill="#2E2D2C"/>
<path d="M45.7344 60.9754L45.7908 28.3782L56.6313 28.395L56.5694 61.3676C56.5637 63.4966 57.5723 64.1298 58.3273 64.1298C58.7048 64.1298 58.9584 64.1298 59.4598 64.0065L60.705 71.9065C59.5669 72.4051 57.8033 72.7805 55.4087 72.7749C48.1121 72.7693 45.7231 68.0013 45.7344 60.9754Z" fill="#2E2D2C"/>
<path d="M62.8912 56.3699C62.9081 45.9655 70.4863 39.9592 78.5548 39.976C86.6232 39.9929 94.179 46.0215 94.1564 56.4259C94.1339 66.8303 86.5613 72.8365 78.4928 72.8197C70.4244 72.8085 62.8686 66.7743 62.8912 56.3699ZM83.0623 56.4091C83.0736 51.6467 81.8171 48.6324 78.5379 48.6268C75.2587 48.6212 73.9909 51.6299 73.9853 56.3923C73.974 61.1547 75.2305 64.169 78.5097 64.1746C81.7889 64.1746 83.051 61.1715 83.0623 56.4091Z" fill="#2E2D2C"/>
<path d="M99.3175 60.0733L99.3401 49.1647L95.1819 49.1591L95.1988 41.1358L99.988 40.7661L101.261 32.6196L110.214 32.6364L110.198 40.7829L117.381 40.7941L117.365 49.1927L110.181 49.1815L110.164 59.8997C110.158 63.3454 111.922 64.4771 113.939 64.4827C114.947 64.4827 115.956 64.2362 116.711 63.9841L118.334 71.7608C116.694 72.2594 114.361 72.8814 110.891 72.8758C102.698 72.8646 99.3006 67.7212 99.3175 60.0733Z" fill="#2E2D2C"/>
<path d="M8.04592 26.6526L6.18094 24.7924L4.0286 26.9271L1.87626 24.7812L0.0056344 26.6357L2.15797 28.7816L0 30.9163L1.86499 32.7764L4.01733 30.6418L6.16967 32.782L8.04029 30.9331L5.88795 28.7872L8.04592 26.6526Z" fill="#2E2D2C"/>
<path d="M45.5767 1.86574L43.7173 0.00560281L41.5594 2.14588L39.407 0L37.5364 1.85453L39.6887 3.9948L37.5308 6.13507L39.3957 7.99521L41.5481 5.85493L43.7004 8.00081L45.571 6.14628L43.4187 4.00601L45.5767 1.86574Z" fill="#2E2D2C"/>
<path d="M83.0398 14.36L81.1805 12.4999L79.0225 14.6345L76.8701 12.4943L74.9995 14.3432L77.1519 16.4891L74.9939 18.6293L76.8589 20.4839L79.0169 18.3492L81.1636 20.4951L83.0342 18.6405L80.8818 16.4947L83.0398 14.36Z" fill="#2E2D2C"/>
<path d="M133 26.8767L131.135 25.0165L128.977 27.1512L126.83 25.0053L124.96 26.8599L127.112 29.0057L124.954 31.1404L126.813 33.0005L128.971 30.8659L131.124 33.0061L132.994 31.1572L130.842 29.0113L133 26.8767Z" fill="#2E2D2C"/>
<path d="M39.8193 93.5859V92.4375H37.8848V91.8018C37.8848 90.8516 38.2949 90.4277 39.1768 90.4277C39.5186 90.4277 39.874 90.5166 40.0586 90.5986L40.2021 89.4775C40.0859 89.416 39.6963 89.2383 39.1152 89.2383C37.5156 89.2383 36.5723 90.209 36.5723 91.7266V92.4375H35.3145V93.5859H36.5518V99H37.9053V93.5859H39.8193ZM40.4209 95.7188C40.4209 97.6396 41.9111 99.1367 43.9072 99.1367C45.9033 99.1367 47.3936 97.6396 47.3936 95.7188C47.3936 93.7979 45.9033 92.3008 43.9072 92.3008C41.9111 92.3008 40.4209 93.7979 40.4209 95.7188ZM41.7744 95.7188C41.7744 94.5088 42.6699 93.5723 43.9072 93.5723C45.1445 93.5723 46.04 94.5088 46.04 95.7188C46.04 96.9287 45.1445 97.8652 43.9072 97.8652C42.6699 97.8652 41.7744 96.9287 41.7744 95.7188ZM50.3125 92.4375H48.9521V99H50.3125V95.4248C50.3125 93.9414 51.2559 93.5586 51.9805 93.5586C52.4111 93.5586 52.7051 93.6816 52.7803 93.709L52.9238 92.4648C52.9238 92.4648 52.5342 92.3008 52.0215 92.3008C51.3037 92.3008 50.6816 92.6152 50.3125 93.333V92.4375ZM58.5361 99H60.8467L62.7129 92.123L64.5791 99H66.8965L69.4805 89.7168H68.0381L65.7344 97.708L63.4854 89.8672H61.9473L59.6982 97.708L57.3877 89.7168H55.9521L58.5361 99ZM69.8291 95.7188C69.8291 97.6396 71.3193 99.1367 73.3154 99.1367C75.3115 99.1367 76.8018 97.6396 76.8018 95.7188C76.8018 93.7979 75.3115 92.3008 73.3154 92.3008C71.3193 92.3008 69.8291 93.7979 69.8291 95.7188ZM71.1826 95.7188C71.1826 94.5088 72.0781 93.5723 73.3154 93.5723C74.5527 93.5723 75.4482 94.5088 75.4482 95.7188C75.4482 96.9287 74.5527 97.8652 73.3154 97.8652C72.0781 97.8652 71.1826 96.9287 71.1826 95.7188ZM79.7207 92.4375H78.3604V99H79.7207V95.4248C79.7207 93.9414 80.6641 93.5586 81.3887 93.5586C81.8193 93.5586 82.1133 93.6816 82.1885 93.709L82.332 92.4648C82.332 92.4648 81.9424 92.3008 81.4297 92.3008C80.7119 92.3008 80.0898 92.6152 79.7207 93.333V92.4375ZM86.1396 99.1367C87.2539 99.1367 87.9922 98.7266 88.4775 98.1045V99H89.8311V89.375H88.4775V93.333C87.9922 92.7109 87.2539 92.3008 86.1396 92.3008C84.2734 92.3008 82.8447 93.668 82.8447 95.6846C82.8447 97.7012 84.2734 99.1367 86.1396 99.1367ZM88.4707 95.6846C88.4707 96.8945 87.5684 97.9199 86.3037 97.9199C85.0391 97.9199 84.1982 96.8945 84.1982 95.6846C84.1982 94.4746 85.0391 93.5176 86.3037 93.5176C87.5615 93.5176 88.4707 94.4746 88.4707 95.6846ZM95.5322 92.3008C94.418 92.3008 93.6797 92.7109 93.1943 93.333V92.4375H91.8408V101.734H93.1943V98.1045C93.6797 98.7266 94.418 99.1367 95.5322 99.1367C97.3984 99.1367 98.8271 97.7695 98.8271 95.7529C98.8271 93.7363 97.3984 92.3008 95.5322 92.3008ZM93.2012 95.7529C93.2012 94.543 94.1035 93.5176 95.3682 93.5176C96.6328 93.5176 97.4736 94.543 97.4736 95.7529C97.4736 96.9629 96.6328 97.9199 95.3682 97.9199C94.1104 97.9199 93.2012 96.9629 93.2012 95.7529ZM101.76 92.4375H100.399V99H101.76V95.4248C101.76 93.9414 102.703 93.5586 103.428 93.5586C103.858 93.5586 104.152 93.6816 104.228 93.709L104.371 92.4648C104.371 92.4648 103.981 92.3008 103.469 92.3008C102.751 92.3008 102.129 92.6152 101.76 93.333V92.4375ZM110.906 97.2637C110.031 97.6807 109.375 97.8789 108.609 97.8789C107.338 97.8789 106.504 97.2842 106.265 96.2109H111.371C111.761 94.0781 110.387 92.3008 108.254 92.3008C106.292 92.3008 104.877 93.7637 104.877 95.7188C104.877 97.7422 106.401 99.1367 108.609 99.1367C109.525 99.1367 110.353 98.9248 111.111 98.4941L110.906 97.2637ZM106.306 95.1309C106.408 94.1807 107.215 93.5381 108.295 93.5381C109.375 93.5381 110.059 94.1807 110.147 95.1309H106.306ZM115.021 95.042C114.194 94.8711 113.887 94.666 113.887 94.2559C113.887 93.7705 114.379 93.4902 115.37 93.4902C116.054 93.4902 116.833 93.6406 117.366 93.873L117.51 92.6973C116.963 92.458 116.108 92.3008 115.302 92.3008C113.661 92.3008 112.567 93.1211 112.567 94.2354C112.567 95.2471 113.183 95.9102 114.338 96.1426L115.309 96.3408C116.156 96.5117 116.512 96.751 116.512 97.1953C116.512 97.7012 116.054 97.9473 115.069 97.9473C114.338 97.9473 113.497 97.7695 112.827 97.4756L112.663 98.6445C113.23 98.9521 114.16 99.1367 115.158 99.1367C116.751 99.1367 117.831 98.501 117.831 97.1748C117.831 96.0332 117.12 95.4727 115.787 95.1992L115.021 95.042ZM121.365 95.042C120.538 94.8711 120.23 94.666 120.23 94.2559C120.23 93.7705 120.723 93.4902 121.714 93.4902C122.397 93.4902 123.177 93.6406 123.71 93.873L123.854 92.6973C123.307 92.458 122.452 92.3008 121.646 92.3008C120.005 92.3008 118.911 93.1211 118.911 94.2354C118.911 95.2471 119.526 95.9102 120.682 96.1426L121.652 96.3408C122.5 96.5117 122.855 96.751 122.855 97.1953C122.855 97.7012 122.397 97.9473 121.413 97.9473C120.682 97.9473 119.841 97.7695 119.171 97.4756L119.007 98.6445C119.574 98.9521 120.504 99.1367 121.502 99.1367C123.095 99.1367 124.175 98.501 124.175 97.1748C124.175 96.0332 123.464 95.4727 122.131 95.1992L121.365 95.042Z" fill="#2E2E2B"/>
</svg>
