<svg width="661" height="494" viewBox="0 0 661 494" fill="none" xmlns="http://www.w3.org/2000/svg">
<rect width="661" height="494" rx="8" fill="#2E2E2B"/>
<g class="SVGelement SVGelement__7">
<path d="M58 79C58 74.5817 61.5817 71 66 71H595C599.418 71 603 74.5817 603 79V427H58V79Z" fill="#EAB8D1"/>
<path d="M58 79C58 74.5817 61.5817 71 66 71H595C599.418 71 603 74.5817 603 79V102H58V79Z" fill="#B569B8"/>
<circle cx="80" cy="86" r="6" fill="white"/>
<circle cx="98" cy="86" r="6" fill="white"/>
<circle cx="116" cy="86" r="6" fill="white"/>
</g>
<g class="SVGelement SVGelement__8">
<path d="M185 146H209.463L197.232 186.927L185 146ZM221.839 186.927L234.071 146H209.607L221.839 186.927ZM351.639 186.855L367.18 146H336.026L351.639 186.855ZM256.807 160.757H246.446V146H236.157V187H246.446H256.735H267.024V173.915H256.807V160.757ZM469.711 173.915V160.757H459.422V146H449.061V187H459.35H469.639H480V173.915H469.711ZM392.939 146H382.65V187H387.83H393.011H413.661V173.915H392.939V146ZM426.181 146H415.891V187H421.072H426.252H446.902V173.915H426.252V146H426.181ZM279.76 146H269.471V166.5H279.76V173.842H269.471V187H279.76H290.049V160.757H279.76V146ZM290.121 159.158H300.41V146H290.121V159.158ZM369.627 187H379.916V160.757H369.627V187ZM369.627 159.158H379.916V146H369.627V159.158ZM313.073 187H323.362V160.757H313.073V187ZM323.362 159.158H333.651V146H323.362V159.158ZM313.073 146H302.784V159.158H313.073V146Z" fill="#B569B8"/>
</g>
<g class="SVGelement SVGelement__8">
<path d="M201.514 224.16C197.125 224.16 194.227 226.471 194.227 229.93C194.227 233.266 196.824 234.482 199.299 235.289L202.197 236.027C203.551 236.383 204.139 236.82 204.139 237.682C204.139 238.926 202.73 239.336 201.049 239.336C198.492 239.336 195.17 238.379 194.705 237.873L194.35 241.824C195.566 242.508 198.629 243.273 201.363 243.273C205.889 243.273 208.76 240.936 208.76 237.531C208.76 234.605 207.064 233.197 203.646 232.213L200.994 231.447C199.928 231.146 198.834 230.859 198.834 229.711C198.834 228.453 200.119 228.043 201.705 228.043C203.92 228.043 206.723 228.863 207.393 229.301L207.762 225.459C206.271 224.721 204.207 224.16 201.514 224.16ZM215.049 229.875H210.742V243H215.049V229.875ZM212.875 228.193C214.27 228.193 215.254 227.236 215.254 225.842C215.254 224.434 214.27 223.477 212.875 223.477C211.48 223.477 210.523 224.447 210.523 225.842C210.523 227.236 211.494 228.193 212.875 228.193ZM224.332 233.457C225.945 233.457 227.135 234.674 227.135 236.438C227.135 238.188 225.945 239.418 224.332 239.418C222.691 239.418 221.434 238.188 221.434 236.438C221.434 234.619 222.678 233.457 224.332 233.457ZM227.08 241.824V242.576C227.08 244.531 224.578 244.969 223.074 244.969C221.311 244.969 219.301 244.477 218.699 244.094L218.289 247.662C219.355 248.154 221.119 248.742 223.457 248.742C227.135 248.742 231.373 247.143 231.373 242.809V229.875H227.34L227.203 231.256C226.438 230.299 225.207 229.602 223.225 229.602C219.52 229.602 217.1 232.527 217.1 236.465C217.1 240.375 219.52 243.273 223.225 243.273C224.852 243.273 226.396 242.74 227.08 241.824ZM246.986 243V234.469C246.986 231.338 244.607 229.602 242.133 229.602C240.588 229.602 239.002 230.08 238.072 231.256L237.936 229.875H233.984V243H238.291V235.699C238.291 234.236 239.398 233.539 240.479 233.539C241.518 233.539 242.68 234.236 242.68 235.699V243H246.986ZM264.623 229.875V237.189C264.623 238.502 263.775 239.35 262.49 239.35C261.355 239.35 260.494 238.488 260.494 237.189V229.875H256.188V237.6C256.188 240.854 258.607 243.273 262.49 243.273C266.373 243.273 268.93 240.854 268.93 237.518V229.875H264.623ZM275.725 248.469V242.029C276.504 242.781 277.953 243.273 279.58 243.273C283.285 243.273 285.705 240.375 285.705 236.465C285.705 232.527 283.285 229.602 279.58 229.602C277.598 229.602 276.367 230.299 275.602 231.256L275.465 229.875H271.418V248.469H275.725ZM278.473 233.457C280.127 233.457 281.371 234.619 281.371 236.438C281.371 238.188 280.113 239.418 278.473 239.418C276.859 239.418 275.67 238.188 275.67 236.438C275.67 234.674 276.859 233.457 278.473 233.457ZM303.615 233.389V229.875H299.979V228.973C299.979 226.676 302.74 226.908 303.916 227.414L304.367 223.914C303.314 223.6 302.535 223.477 301.564 223.477C297.545 223.477 295.822 226.006 295.822 228.727V229.875H293.662V233.389H295.822V243H300.129V233.389H303.615ZM311.326 229.602C307.266 229.602 304.271 232.527 304.271 236.438C304.271 240.348 307.266 243.273 311.326 243.273C315.387 243.273 318.381 240.348 318.381 236.438C318.381 232.527 315.387 229.602 311.326 229.602ZM311.326 233.416C312.967 233.416 314.115 234.66 314.115 236.438C314.115 238.215 312.967 239.459 311.326 239.459C309.686 239.459 308.537 238.215 308.537 236.438C308.537 234.66 309.686 233.416 311.326 233.416ZM324.588 231.666L324.451 229.875H320.391V243H324.697V236.684C324.697 234.236 326.078 233.348 327.705 233.348C328.252 233.348 328.812 233.443 329.359 233.635L329.619 229.875C329.072 229.697 328.539 229.602 328.02 229.602C326.502 229.602 325.203 230.367 324.588 231.666ZM340.844 235.016C340.953 233.936 341.842 233.02 343.428 233.02C344.877 233.02 345.738 233.99 345.738 235.016H340.844ZM348.732 238.871C347.898 239.268 346.176 239.637 344.439 239.637C342.676 239.637 341.049 239.062 340.83 237.545H349.58C350.537 232.104 347.16 229.602 343.359 229.602C339.49 229.602 336.633 232.309 336.633 236.438C336.633 240.566 339.545 243.273 344.412 243.273C346.422 243.273 348.295 242.686 349.32 242.098L348.732 238.871ZM365.467 243V229.875H361.297L361.16 231.256C360.408 230.34 359.137 229.602 357.291 229.602C353.791 229.602 351.221 232.527 351.221 236.451C351.221 240.375 353.791 243.273 357.291 243.273C359.137 243.273 360.408 242.549 361.16 241.619L361.297 243H365.467ZM358.316 233.43C359.984 233.443 361.146 234.674 361.146 236.451C361.146 238.229 359.984 239.473 358.316 239.473C356.648 239.473 355.486 238.229 355.486 236.451C355.486 234.674 356.648 233.43 358.316 233.43ZM372.275 231.666L372.139 229.875H368.078V243H372.385V236.684C372.385 234.236 373.766 233.348 375.393 233.348C375.939 233.348 376.5 233.443 377.047 233.635L377.307 229.875C376.76 229.697 376.227 229.602 375.707 229.602C374.189 229.602 372.891 230.367 372.275 231.666ZM383.104 223.75H378.797V243H383.104V223.75ZM389.939 243.014C389.557 244.354 388.559 245.023 387.383 245.023C386.891 245.023 386.371 244.9 385.852 244.668L385.264 248.059C386.18 248.51 387.15 248.742 388.094 248.742C390.514 248.742 392.619 247.539 393.672 244.928L399.756 229.875H394.943L392.236 238.652L389.461 229.875H384.662L389.939 243.014ZM411.732 243L411.869 241.988C412.594 242.74 414.098 243.273 415.725 243.273C419.43 243.273 421.85 240.375 421.85 236.465C421.85 232.527 419.43 229.602 415.725 229.602C413.742 229.602 412.512 230.299 411.746 231.256V223.723H407.562V243H411.732ZM414.617 233.457C416.271 233.457 417.516 234.619 417.516 236.438C417.516 238.188 416.258 239.418 414.617 239.418C413.004 239.418 411.814 238.188 411.814 236.438C411.814 234.674 413.004 233.457 414.617 233.457ZM428.193 229.875H423.887V243H428.193V229.875ZM426.02 228.193C427.414 228.193 428.398 227.236 428.398 225.842C428.398 224.434 427.414 223.477 426.02 223.477C424.625 223.477 423.668 224.447 423.668 225.842C423.668 227.236 424.639 228.193 426.02 228.193ZM435.002 231.666L434.865 229.875H430.805V243H435.111V236.684C435.111 234.236 436.492 233.348 438.119 233.348C438.666 233.348 439.227 233.443 439.773 233.635L440.033 229.875C439.486 229.697 438.953 229.602 438.434 229.602C436.916 229.602 435.617 230.367 435.002 231.666ZM454.84 243V223.723H450.656V231.256C449.891 230.299 448.66 229.602 446.678 229.602C442.973 229.602 440.553 232.527 440.553 236.465C440.553 240.375 442.973 243.273 446.678 243.273C448.305 243.273 449.754 242.781 450.533 241.988L450.67 243H454.84ZM447.785 233.457C449.398 233.457 450.588 234.674 450.588 236.438C450.588 238.188 449.398 239.418 447.785 239.418C446.145 239.418 444.887 238.188 444.887 236.438C444.887 234.619 446.131 233.457 447.785 233.457ZM467.979 238.98C467.979 236.738 466.803 235.508 464.273 235.098L463.002 234.893C461.512 234.66 460.979 234.414 460.979 233.949C460.979 233.375 461.676 233.102 463.139 233.102C464.273 233.102 466.229 233.457 467.062 233.799L467.391 230.449C466.133 229.889 464.588 229.602 462.906 229.602C459.229 229.602 456.877 231.311 456.877 233.977C456.877 236.301 458.107 237.545 460.842 237.969L462.059 238.16C463.426 238.379 463.822 238.584 463.822 239.076C463.822 239.637 463.275 239.842 461.84 239.842C460.637 239.842 458.764 239.459 457.506 238.967L457.082 242.371C458.34 242.932 460.268 243.273 462.209 243.273C465.75 243.273 467.979 241.605 467.979 238.98Z" fill="#D95496"/>
</g>
<g class="SVGelement SVGelement__8">
<rect x="223" y="261" width="220" height="4" fill="white"/>
<rect x="223" y="271" width="220" height="4" fill="white"/>
<rect x="223" y="281" width="220" height="4" fill="white"/>    
</g>
<g class="SVGelement SVGelement__8">
<path d="M161 308H390V344H161V308Z" fill="#D95496"/>
<path d="M392 308H494V344H392V308Z" fill="#B569B8"/>
</g>
<g class="SVGelement SVGelement__8">
<circle class="SVGelement SVGelement__9" cx="299.5" cy="384.5" r="10.5" fill="#D95496"/>
<circle class="SVGelement SVGelement__9" cx="333.5" cy="384.5" r="10.5" fill="#D95496"/>
<circle class="SVGelement SVGelement__9" cx="366.5" cy="384.5" r="10.5" fill="#D95496"/>
</g>
</svg>