<svg width="97" height="62" viewBox="0 0 97 62" fill="none" xmlns="http://www.w3.org/2000/svg">
<path d="M7.19287 29.8857H13.6458L14.1802 31.988H14.3446C16.0297 30.4216 18.2903 29.3086 20.592 29.3086C26.0175 29.3086 29.5111 33.9254 29.5111 41.0567C29.5111 48.9712 24.7844 53.5056 19.9344 53.5056C18.0026 53.5056 16.2763 52.6812 14.7967 51.1972L15.0844 54.701V61.0491H7.19287V29.8857ZM21.4141 41.1392C21.4141 37.3468 20.3043 35.7804 18.2081 35.7804C17.0162 35.7804 16.1119 36.2338 15.0844 37.4292V45.9208C15.9886 46.7453 17.0162 47.0338 18.0437 47.0338C19.8522 47.0338 21.4141 45.5911 21.4141 41.1392Z" fill="#2E2E2B"/>
<path d="M33.3748 44.849L33.4159 20.8582H41.3074L41.2663 45.0964C41.2663 46.6628 42.0061 47.1162 42.5404 47.1162C42.8281 47.1162 42.9926 47.1162 43.3625 47.0338L44.2667 52.846C43.4447 53.217 42.1705 53.5055 40.4031 53.4643C35.101 53.5468 33.3748 50.0429 33.3748 44.849Z" fill="#2E2E2B"/>
<path d="M45.8696 41.4688C45.8696 33.8016 51.4184 29.3909 57.2959 29.3909C63.1734 29.3909 68.6811 33.8428 68.6811 41.51C68.6811 49.1772 63.1323 53.5879 57.2548 53.5879C51.3773 53.5466 45.8696 49.1359 45.8696 41.4688ZM60.584 41.51C60.584 38.0061 59.6798 35.7802 57.2959 35.7802C54.912 35.7802 53.9667 38.0061 53.9667 41.51C53.9667 45.0138 54.8709 47.2398 57.2548 47.2398C59.6798 47.1985 60.584 45.0138 60.584 41.51Z" fill="#2E2E2B"/>
<path d="M72.4624 44.1895V36.1513H69.4209V30.2566L72.9145 29.9681L73.8599 23.991H80.3951V29.9681H85.6561V36.1513H80.3951V44.0246C80.3951 46.5803 81.6692 47.4048 83.1489 47.4048C83.8887 47.4048 84.6285 47.2399 85.1628 47.0338L86.3548 52.7635C85.1629 53.1345 83.4366 53.588 80.9294 53.588C74.9285 53.6292 72.4213 49.8368 72.4624 44.1895Z" fill="#2E2E2B"/>
<path d="M97 19.7863L95.6437 18.3848L94.0818 19.9924L92.5199 18.3848L91.1636 19.7451L92.7254 21.3527L91.1636 22.9191L92.5199 24.2794L94.0818 22.713L95.6437 24.2794L97 22.9191L95.4381 21.3527L97 19.7863Z" fill="#2E2E2B"/>
<path d="M60.5838 10.5527L59.2275 9.19238L57.6245 10.7588L56.0626 9.19238L54.7063 10.5527L56.2682 12.1191L54.7063 13.6855L56.0626 15.087L57.6245 13.4794L59.1864 15.087L60.5838 13.7267L59.022 12.1191L60.5838 10.5527Z" fill="#2E2E2B"/>
<path d="M33.2513 1.36031L31.895 0L30.3331 1.56641L28.7301 0L27.3738 1.36031L28.9356 2.92672L27.3738 4.49314L28.7301 5.89467L30.292 4.32825L31.895 5.89467L33.2513 4.53436L31.6895 2.92672L33.2513 1.36031Z" fill="#2E2E2B"/>
<path d="M5.87754 19.6215L4.52119 18.22L2.91822 19.8276L1.35636 18.22L0 19.5803L1.56186 21.1879L0 22.7543L1.35636 24.1146L2.91822 22.5482L4.48008 24.1146L5.87754 22.7543L4.31568 21.1879L5.87754 19.6215Z" fill="#2E2E2B"/>
</svg>
